<svg xmlns="http://www.w3.org/2000/svg" viewBox="0 0 358.857 131.163"><title>Atlanta Braves primary light logo</title><path d="M356.582 105.478c.016-.248.036-.445.036-.723 0-.963-.067-2.16-.377-3.517-.806-3.764-2.828-6.515-4.297-8.51l-1.164-1.696-.523-1.283c-.2-.56-.445-1.222-.76-1.935 3.176-2.627 4.468-5.533 4.98-7.5 1.08-4.218-.108-8.582-3.215-11.675-3.083-3.05-7.654-4.457-12.81-4.085-.155-6.692-3.25-10.487-4.984-12.452-.016-.332-.016-.683-.016-.683-.03-3.91-.077-11.16-5.895-16.992-1.257-1.272-1.406-1.644-1.914-2.917 0 0-.594-1.405-.77-1.788-.316-.786-1.17-2.606-3.94-4.674l-6.573-4.902-4.473 6.97c-2.477 3.817-2.787 7.53-2.994 9.98 0 0-.104.972-.145 1.385-.206.22-.548.56-.548.56l-2.115 2.307-.233.31c-3.01 3.753-3.516 6.94-3.516 14.592l-.04.722c-.21.26-.478.6-.478.6-2.528 3.268-2.62 7.188-2.69 10.063 0 0-.112 2.327-.118 2.368-7.32 1.067-152.062 21.927-155.31 22.393-9.28 1.24-13.574 8.605-12.89 14.86 1.18 10.828 8.816 14.055 15.575 13.466 4.276-.352 109.44-16.052 146.79-21.636-.295 1.49-.518 3.05-.518 4.716 0 2.048.352 4.23 1.112 6.474-.586 1.356-1.066 2.855-1.273 4.572-.125 1.003-.176 1.964-.176 2.834 0 6.018 2.555 9.35 4.87 11.127 3.673 2.833 8.595 3.05 14.51.962 6.15 1.148 12.914.506 19.016-1.82 5.724 1.086 11.567-2.296 14.452-4.043 0 0 .072-.053.088-.053h.27l4.012-.104.662-.134c2.632-.507 7.55-1.43 9.773-6.403.652-1.448.884-2.895.884-4.24 0-3.435-1.608-6.32-2.275-7.5z" fill="#FFF"/><path d="M353.64 107.216l-.254-.445s-.108-.155-.242-.257c.005-.062.005-.165.005-.165.035-.425.087-.972.087-1.593 0-.776-.068-1.696-.3-2.772-.647-3-2.333-5.285-3.698-7.146l-1.402-2.058-.755-1.79c-.424-1.17-.956-2.638-2.104-4.272 4.275-2.42 5.734-5.42 6.225-7.31.77-2.98-.083-6.062-2.296-8.243-2.726-2.71-7.086-3.713-12.055-2.886-.222-.32-.44-.622-.657-.92 0 0-.895-1.325-1.1-1.646.02-.217.035-.475.035-.693 0-5.863-2.7-8.924-4.348-10.785 0 0-.47-.56-.636-.776-.017-.456-.09-2.007-.09-2.007-.02-3.64-.07-9.702-4.86-14.51-1.763-1.78-2.115-2.65-2.684-4.096l-.78-1.862c-.192-.393-.647-1.385-2.648-3l-3.754-3.04-2.633 4.096c-1.994 3.073-2.243 6.134-2.424 8.368l-.284 2.213c-.15.63-.47.993-1.464 1.945l-1.8 1.975-.268.34c-2.12 2.66-2.735 4.604-2.735 12.37 0 1.686-.17 2.12-.17 2.15-.022.012-.462.58-.462.58l-.62.775c-1.83 2.337-1.893 5.336-1.96 7.964l-.16 2.833c-.182 1.272-.43 2.068-.683 2.596-3.315.485-156.113 22.514-157.545 22.71-7.995 1.087-10.347 7.322-9.944 11.024 1.102 10.187 8.704 10.63 11.92 10.363 4.375-.382 122.4-17.995 151.743-22.39-.863 2.576-1.82 5.584-1.82 8.935 0 2.152.394 4.407 1.47 6.753-.797 1.5-1.428 2.99-1.64 4.737-.092.86-.15 1.634-.15 2.368 0 4.603 1.832 7.074 3.512 8.357 4.055 3.134 9.535 1.396 12.44.197 5.933 1.25 12.515.485 18.446-1.914 4.815 1.77 10.426-1.623 13.353-3.413l.662-.382c.316-.197.57-.207 1.686-.124l3.098-.072.694-.144c2.456-.445 5.817-1.076 7.296-4.396.42-.94.595-1.87.595-2.782-.002-2.182-.98-4.24-1.843-5.76z" fill="#CE1141"/><path d="M293.382 31.212c-1.137-2.834-4.39-11.024.636-18.005 1.928-2.337 1.03-4.86.708-5.564-.32-.703-1.65-3.03-4.96-2.967h-.185l-.195.01c-10.223 1.013-15.896 12.97-21.878 25.628-.62 1.292-1.36 2.69-2.074 4.043-.274-.052-.554-.155-.828-.186-.992-.102-1.923.012-2.86.105-.035-.165-.024-.31-.076-.486-.208-.6-.694-1.077-1.113-1.563.823-.207 1.846-.476 1.846-.476 2.818-.743 3.837-3.63 4.152-4.87.202-.828.31-1.655.31-2.473 0-1.87-.538-3.702-1.577-5.274-1.655-2.513-4.385-4.188-7.52-4.602-5.987-.795-12.492 4.23-15.16 11.098-2.156 2.46-4.608 4.2-7.006 5.378-.61-4.892-3.64-8.418-8.113-9.215-4.852-.858-9.82 1.81-11.832 6.34-.083.176-.114.362-.192.57-.972-1.676-2.296-3.072-4.05-3.765-12.87-5.162-22.668 10.404-31.31 24.117-3.448 5.48-6.712 10.662-9.83 14.18-.253.31-.388.35-.594.557.072-.9.294-1.997.926-3.373.067-.155 11.805-28.006 11.805-28.006l-16.216 1.624s-.197.466-.31.796c-1.48-.734-3.083-1.365-4.96-1.602-14.473-1.842-23.382 11.014-26.91 23.672-.216.672-1.468 3.186-2.636 5.264-4.7 8.366-8.723 10.683-10.305 10.838-.12-.455-.237-.9-.237-1.613 0-4.438 2.182-13.456 4.6-19.445.374-1.034.523-1.954.523-2.75 0-2.11-1.06-3.392-1.637-3.93-1.252-1.16-3.45-1.924-5.916-.672-2.762 1.645-5.503 2.626-8.077 3.216.036-.394.144-.85.144-1.242 0-1.116-.144-2.14-.465-3.02-1.547-4.146-4.634-6.877-8.476-7.497-3.858-.61-7.813 1.045-10.337 4.303-1.654 2.16-2.502 4.716-2.502 7.405 0 1.697.34 3.444 1.003 5.182.636 1.634 1.763 3.175 3.087 4.612-1.473 3.05-3.164 6.33-4.85 9.277C83 75.537 78.46 81.763 72.25 88.32c-.258.27-.44.538-.636.807.16-.466.336-.92.497-1.376 1.31-3.93 1.93-7.89 1.93-11.8 0-8.16-2.896-15.957-8.17-22.35 8.122-6.43 13.06-15.738 13.06-25.49 0-1.944-.228-3.858-.6-5.813 1.185-.362 2.37-.765 3.65-1.158 4.52-1.16 4.148-5.224 4.096-5.67-.067-.464-.703-4.467-5.518-4.405-2.38.04-4.684.196-6.955.413C68.826 5.016 60.573-.032 48.023 0c-13.445.31-21.465 7.446-25.84 13.403-5.993 8.13-7.85 17.52-6.592 22.597l.663 2.668 2.735.983c1.665.54 3.444.125 4.762-1.095 3.982-3.216 6.39-4.095 6.97-4.158l.59-.04c-6.81 9.193-10.937 20.652-14.923 31.78C12.224 77.793 8.29 88.797 1.964 94.67L0 96.522l.476 2.69c.527 3.03.92 9.514.642 16.04-.04 2.275.982 4.115 2.704 5.046s3.754.744 5.41-.496c10.677-7.984 17.89-29.826 24.25-49.094 2.643-7.973 5.172-15.586 7.504-20.83-.294 1.398-.31 2.846.016 4.304 1.494 5.688 6.24 8.656 11.846 7.54 0 0 .527-.24 1.143-.528 1.72 2.637 2.65 6.443 2.65 10.632 0 3.258-.56 6.743-1.707 10.01-1.494 4.24-6.194 14.087-17.643 13.83-2.477-.074-5.053-1.16-5.554-1.43-2.922-1.716-5.58-.464-6.775 1.45-1.235 1.974-1.126 4.984 1.46 6.96-.265-.238.15.144.15.144 2.49 2.235 8.345 7.52 19.954 7.064 9.7-.414 18.786-7.27 23.735-17.53-.012.125-.048.27-.048.403 0 1.51.72 2.627 1.07 3.062 1.278 1.685 3.962 2.894 7.312.816 1.87-1.168 4.384-2.833 7.105-5.315 4.602-4.24 9.136-10.05 14.266-18.325.243-.393 2.86-4.633 5.408-9.96.553.012 1.137-.02 1.717-.05-1.28 3.753-2.62 8.293-2.62 12.606 0 4.81 1.68 9.247 7 11.646 5.973 2.71 15.695.455 24.9-9.432 2.166 2.865 5.155 4.737 8.904 5.1 3.713.123 7.674-1.698 10.678-3.828 2.213 1.593 5.25 3.123 9.292 2.69 5.926-.63 11.82-5.214 18.02-14.055l3.646-5.574c3.65-5.74 9.112-14.262 13.378-18.73-.31.828-.667 1.76-1.37 2.927-3.584 6.05-6.976 12.297-6.976 17.686 0 1.27.186 2.48.605 3.628.947 2.648 3.02 4.623 5.813 5.554 11.437 3.796 23.538-6.018 32.784-26.207 1.168-.32 2.31-.723 3.44-1.2-1.314 2.855-2.168 5.544-2.168 7.9 0 3.972 1.63 7.19 3.862 9.34 5.704 5.524 15.72 5.214 23.166-.185 3.196 1.82 6.94 2.937 10.927 2.978 8.61.145 16.202-3.794 20.82-10.786 4.556-6.902 5.377-15.806 2.192-23.8zm-258.28-1.997c-.058-1.096-.21-6.846 3.205-10.435 2.203-2.296 5.636-3.35 10.203-3.155 1.085.062 2.787.403 4.6 1.17-6.896 3.11-12.905 7.497-17.978 13.01l-.03-.59zM43.55 45.07c.062-.083.124-.196.17-.28l.942-1.313c3.004-4.167 6.526-9.04 16.74-14.293-.038 2.586-.69 8.212-5.105 13.683l-.057.062c-.16.206-.366.38-.563.547-3.955-1.954-8.124-1.737-11.252.766-.31.258-.6.538-.875.827zm237.288-7.136c-.378 8.036-5.104 10.725-9.458 11.593 2.958-4.52 5.487-9.245 7.73-13.444.455-.827.916-1.697 1.377-2.524.176.96.402 1.88.402 3.02 0 .434-.027.88-.052 1.354zm-29.744 15.12c-1.07.373-2.084.538-2.606.083-.337-.3-.49-.765-.49-1.385 0-.818.31-1.892.925-3.062.434-.868 1.086-1.695 1.846-2.492-.12.755-.466 1.49-.466 2.212 0 1.583.3 3.124.79 4.644zm6.608-22.72s.29.31.45.475c-1.02-.27-2.084-.466-3.434 0l.084-.01c-.04 0-.114-.033-.192-.053 0-.062-.025-.114-.025-.176 0-1.075.594-2.182 1.313-2.77.253-.217.418-.31.62-.425.144 1.447.792 2.513 1.184 2.958zm-43.008 13.143c.373-.796.497-1.406.76-2.15.12.268.17.557.3.806.574 1.055 1.48 1.77 2.3 2.544-3.582 6.506-7.02 10.714-9.14 12.07.73-2.68 2.786-6.992 4.063-9.65l1.717-3.62zM149.98 66.83c-.18.104-.357.176-.854-.04-.253-.114-.976-1.945-.2-5.865 1.5-7.457 6.338-13.507 8.697-13.507.3 0 .346.072.377.113.17.25.326.808.326 1.718 0 1.262-.32 3.196-1.354 5.906-3.7 9.65-6.284 11.387-6.992 11.676z" fill="#FFF"/><g fill="#CE1141"><path d="M288.97 33.073c-1.152-2.895-5.522-13.414 1.21-22.793.394-.466.363-.714-.345-.683-7.442.703-12.256 10.61-18.063 22.887-1.215 2.555-2.632 5.254-4.142 7.943-2.063-1.747-8.827-3.112-11.65 3.66-1.64 3.922-.926 7.665 1.267 10.634-.58.57-1.163 1.138-1.737 1.593-6.873 5.555-15.88-.227-10.787-9.98 2.493-4.767 8.64-8.51 11.004-9.44 1.143-.478 2.373-2.06.506-1.418-2.25.796-5.46-.466-6.122-2.803-.955-3.382.56-6.836 2.794-8.698 5.652-4.726 8.946-.155 8.35 2.545-.316 1.002.398.257.683-.89.816-3.217-1.65-5.813-4.768-6.227-4.153-.527-9.257 3.878-10.71 9.245-4.814 5.627-11.47 8.73-16.75 9.266.844-2.533 1.36-4.768 1.258-5.957-.606-7.156-8.832-6.628-10.98-1.778-2.098 4.694-1.436 11.757 4.495 12.627-4.452 9.235-11.992 20.828-17.686 19.536-6.773-1.54-.418-12.307 3.605-20.994 3.186-6.89 1.856-10.82-.708-11.832-13.315-5.336-24.79 24.48-35.903 37.034-7.093 8.005-11.4.186-7.486-8.242l8.506-20.198-5.27.527-1.706 4.394c-.687-1.77-3.402-4.406-7.487-4.922-11.526-1.48-18.807 9.566-21.76 20.156-.398 1.448-2.472 5.254-3.087 6.36-6.04 10.755-12.596 14.954-17.012 12.804-5.73-2.762.43-22.122 2.554-27.386.382-1.044.17-1.396-.513-1.044-4.986 2.99-11.325 4.737-16.335 4.488 1.272-3.527 1.95-6.608 1.354-8.19-3.27-8.822-14.955-3.288-11.424 5.812.755 1.986 2.337 3.858 4.57 5.182-1.97 4.282-4.487 9.215-6.654 13.03-5.688 10.032-10.606 16.32-16.387 22.443-1.426 1.52-.18 1.035.486.62 2.003-1.24 4.117-2.698 6.388-4.777 4.348-4.013 8.718-9.71 13.42-17.312 1.813-2.907 4.435-7.8 6.52-12.535 1.902.413 4.064.537 6.49.103 1.353-.237 3.908-1.376 4.937-1.862.274-.113.357.25.357.25-.513 4.91-10.466 22.11-.864 26.453 5.363 2.43 15.482-1.168 24.33-14.158.63 5.15 3.16 8.955 8 9.42 3.593.114 8.666-3.154 10.202-5.263 2.89 2.637 10.095 11.148 23.482-7.9 3.222-4.582 11.485-18.834 17.85-25.307 6.687-6.785 11.765-.766 5.73 9.37-4.38 7.384-9.82 17.405-3.16 19.618 10.984 3.65 21.62-10.952 28.007-25.742 7.212-1.117 15.895-7.767 18.258-10.187.176 1.685 1.107 4 2.663 4.767-3.055 2.285-6.287 4.757-8.097 7.125-11.045 15.68 6.542 22.908 17.245 13.713.477-.393.92-.847 1.37-1.272 2.803 2.4 6.785 3.94 11.185 3.993 14.842.245 23.933-14.213 18.518-27.813zM96.71 50.043c-3.433-5.646 5.632-9.13 5.445-2.8-.025.816-.755 2.864-1.887 5.51-1.54-.567-2.793-1.436-3.558-2.71zm64.694 6.92c-4.038 10.53-8.53 16.837-14.158 14.335-8.677-3.878.678-28.793 10.378-28.793 4.24 0 7.622 4.416 3.78 14.46zm64.964-27.106c2.197.848 2.197 3.216.264 8.097-.838-.092-1.63-.258-2.296-.527-3.728-1.54-1.495-8.915 2.032-7.57zm31.657 15.1c2.45-5.037 6.08-2.452 7.166-.466-1.748 2.752-3.564 5.328-5.43 7.55-2.16-1.85-3.056-4.384-1.737-7.083zm27.56-6.66c-.573 12.576-9.87 15.77-14.788 16.413-3.144.403-6.102-.052-8.44-1.076 9.48-11.107 15.334-27.613 20.003-31.595-.306 3.12 3.858 7.828 3.226 16.257zM72.46 19.143c2.52-.88 5.187-1.81 8.166-2.73.682-.166 1.205-.435 0-.435-2.757.052-5.932.25-9.33.704-3.814-6.857-11.52-11.8-23.252-11.76-22.142.476-29.522 23.073-27.84 29.848.03.124.2.3.38.124 4.133-3.36 7.597-5.202 9.764-5.378-.336-5.978 1.733-19.557 18.373-18.79 3.745.164 10.125 2.232 14.076 7.724-9.225 2.586-19.102 7.736-27.008 17.913-14.235 18.305-16.84 49.145-30.622 61.98.64 3.7.998 10.66.714 17.115-.016.703.362.507.57.352 15.537-11.646 24.56-61.825 33.48-73.998 4.002-5.46 8.04-12.348 24.888-19.64.58 1.458 1.035 3.062 1.267 4.872.41 3.33-.18 11.593-6.133 18.967-1.36 1.748-3.708 3.217-4.4 3.083-.868-.714-.76-.475-1.727-1.148-5.16-2.76-9.064 1.303-8.19 5.11.672 2.533 2.76 4.54 6.32 3.846 1.09-.216 2.925-1.86 3.282-1.56 12.348 10.217 6.122 45.763-18.036 45.235-3.665-.103-7.166-1.665-7.76-2.038-.59-.352-.6-.165-.213.104 1.954 1.718 6.624 6.724 17.116 6.3 19.56-.84 33.565-33.53 12.302-52.073C72.228 45.504 77 30.457 72.46 19.143z"/></g><g fill="#13274F"><path d="M350.413 109.14c-1.123-1.2-1.07-1.883-.972-3.103.068-.828.15-1.862-.144-3.227-.46-2.183-1.77-3.95-3.025-5.647l-1.66-2.493-1.02-2.337c-.536-1.49-1.08-3.03-2.853-4.85-.15-.165-.285-.31-.424-.476l-1.505-1.883c4.85-1.416 8.05-3.837 8.795-6.7.42-1.635-.047-3.28-1.277-4.5-1.763-1.747-5.64-2.947-11.277-1.324-.012-.01-.032-.04-.032-.083-.45-.93-1.112-1.892-1.8-2.854-.083-.104-.155-.197-.232-.32-.383-.56-.905-1.366-1.277-1.997-.21-.454-.374-.847-.353-1.168.366-5.16-1.774-7.602-3.33-9.36-.7-.796-1.298-1.458-1.47-2.172-.2-.755-.217-1.892-.227-3.175-.02-3.412-.057-8.087-3.718-11.79-2.332-2.304-2.9-3.743-3.542-5.377l-.693-1.634c-.238-.622-1.21-1.386-1.62-1.687l-.568-.424-.39.61c-1.457 2.264-1.648 4.54-1.82 6.546l-.36 2.843c-.44 1.758-1.45 2.75-2.524 3.805l-1.458 1.562-.305.382c-1.345 1.696-1.887 2.668-1.887 9.938 0 3.392-.55 4.043-1.515 5.222l-.558.694c-1.028 1.324-1.08 3.423-1.127 5.626l-.207 3.34c-.062.425-.135.828-.202 1.18l-.388 1.572c-.01 0-.01.02-.01.02h-.01c-.43 1.386-.977 2.162-1.614 2.72-.072.042-.13.094-.2.125-.42.073-4.676.683-11.563 1.675l-1.152.145c-.02 0-.02.02-.036.02-4.323.622-9.598 1.386-15.503 2.245-.012 0-.017-.01-.017-.01l-3.097.444c-33.24 4.81-84.427 12.194-110.738 15.978-.06 0-.104-.032-.16-.032l-3.397.55-13.34 1.913c-5.36.723-6.97 4.54-6.728 6.773.2 1.862.822 7.57 7.9 6.97.746-.072 4.98-.662 11.573-1.602.036 0 .057.01.093.01l3.527-.548c22.85-3.32 66.748-9.846 99.893-14.79l.305-.02 1.784-.27c13.6-2.057 25.224-3.784 32.578-4.88.047 0 .113.01.165 0l5.125-.786c.016 0 .016-.01.03-.01.813-.125 1.486-.23 1.987-.3-.17 1.664-.693 3.454-1.318 5.366-.863 2.545-1.77 5.264-1.77 8.16 0 2.152.57 4.375 1.967 6.68-.056.146-.185.456-.185.456-1.262 2.058-1.8 3.37-1.986 4.892-.084.673-.12 1.313-.12 1.903 0 2.46.67 4.218 2.022 5.242 1.964 1.52 5.258 1.272 9.762-.703 6.056 1.6 13.182.795 19.205-2.09 3.21 2.192 8.335-.858 11.143-2.554l.698-.414c1.366-.817 2.618-.713 3.827-.61l2.11-.02.714-.145c2.028-.373 3.92-.734 4.598-2.244.524-1.177.172-2.75-1.095-5.004zm-195.427 1.292c-6.464.95-10.596 1.53-11.31 1.582-5.118.445-6.132-2.813-6.447-5.72-.017-.082-.02-.175-.02-.29 0-1.375.955-4.322 5.573-4.932l10.963-1.582c.904.672 1.67 2.348 2.016 4.447.413 2.606.103 5.16-.776 6.495zm98.27-14.51c-30.794 4.592-68.946 10.248-91.186 13.486.807-1.975.812-4.633.486-6.598-.3-1.81-.874-3.3-1.634-4.344l91.145-13.155c.676 2.887 1.276 6.113 1.19 10.612zm6.334-5.553c-.222-2.256-.615-4.19-1.05-5.99l5.97-.858-4.92 6.847zm5.202 3.825l4.002-5.636c.166 1.488.254 3.153.218 5.004-1.376.207-2.778.414-4.22.63zm10.704-1.604c.02-1.84-.062-3.474-.228-4.984l4.587 4.344c-1.412.207-2.87.424-4.36.64zm8.06-6.462c-.677-.62-3.474-3.196-5.03-4.624l9.06-1.313c-1.247 1.853-3.507 5.173-4.03 5.938zm9.386 3.878c-1.566.217-3.31.486-5.212.775l4.882-6.535c.237 1.634.366 3.507.33 5.76zm52.455-15.058c.647.63 1 1.437 1 2.285 0 .27-.032.538-.1.838-.625 2.4-3.717 4.54-8.252 5.803-.393-.527-.755-1.262-1.06-2.027-.145-.31-.264-.642-.352-.942-.005-.03-.036-.052-.052-.072-.278-.786-.49-1.49-.614-1.944-.19-.818-.305-1.573-.382-2.255-.047-.6-.047-1.18-.047-1.645 0 0-.036-.207-.077-.476v-.28c0-.02-.005-.04-.005-.06v-.063c0-.053-.02-.105-.026-.166 5.07-1.457 8.473-.485 9.967 1.004zm-11.07 2.69c.056.433.133.867.258 1.333 0 0 .004.012.015.032v.04l.005.042c.098.434.228.89.362 1.356-.86-.01-1.68-.186-2.41-.497.585-.754 1.185-1.52 1.77-2.306zm-1.697-6.37c-1.412 2.005-3.062 4.114-5.01 6.204-1.526-.827-4.034-2.77-5.694-4.364.57-.083 1.143-.176 1.697-.25l9.007-1.59zm-2.446 14.012c-.806 0-1.556-.02-2.218-.093.196-.197.393-.382.594-.59.528.27 1.066.497 1.624.683zm-20.492-5.358c-.12-1.282-.414-2.45-.864-3.33-.1-.238-.243-.403-.362-.6 1.93-.63 3.962-1.158 6.06-1.593 2.66 2.71 6.465 5.708 8.71 7.208-.658.527-1.34 1.044-2.04 1.54l-1.732-.578c-2.792-.982-6.55-2.255-9.772-2.648zm4.23 7.147c-2.038.795-4.2 1.427-6.547 1.84.72-1.2 1.252-2.368 1.63-3.505 1.2.186 2.363.642 3.5 1.107.46.196.925.38 1.417.557zm-8.32-19.237c.046-1.986.082-3.846.837-4.81l.517-.64c1.215-1.47 1.84-2.4 1.84-6.133 0-7.064.528-7.726 1.588-9.03l.32-.412 1.334-1.438c1.1-1.086 2.373-2.316 2.895-4.478l.398-3.03c.15-1.718.413-3.455 1.297-5.182.254.248.46.445.507.57.016.03.667 1.58.667 1.58.687 1.708 1.324 3.332 3.847 5.875 3.28 3.268 3.31 7.436 3.33 10.777.017 1.385.017 2.585.26 3.527.268 1.034 1.003 1.86 1.783 2.75 1.35 1.53 3.015 3.423 3.015 7.27 0 .33 0 .682-.032 1.034-.005.052-.005.114-.005.176l-6.297 1.076c1.577-3.826.47-8.583-1.143-11.758-.17-.33-.57-.477-.915-.28-.33.165-.45.6-.28.94 1.572 3.114 2.658 7.9.678 11.377l-1.128.196c-5.315.787-10.77 1.615-15.513 3.187l.2-3.144zm-5.074 21.025c-.3.052-.67.113-1.107.165.07-4.22-.505-7.27-1.235-10.352l2.968-.433c.047.01.077.05.14.05.802 0 1.33.332 1.654 1.036.948 2.09-.22 6.64-2.42 9.535zm49.75 24.697c-.392.848-1.943 1.16-3.6 1.458l-.728.145h-1.753c-1.293-.114-2.875-.238-4.613.786l-.714.414c-2.435 1.49-7.523 4.57-9.964 2.48l-.336-.3-.393.208c-2.203 1.087-10.084 4.48-18.843 2.06l-.228-.053-.212.093c-4.09 1.84-7.074 2.16-8.64.962-1.258-.972-1.708-2.927-1.357-5.864.15-1.282.636-2.44 1.774-4.292l.56-1.53-.218-.124c-3.21-4.974-1.7-9.525-.217-13.93 9.525-.425 16.185-2.524 21.697-6.3 5.678 1.45 13.058 1.222 17.95-.526 1.018 1.282 1.463 2.41 1.88 3.568l1.108 2.576 1.77 2.617c1.163 1.582 2.356 3.236 2.776 5.12.134.61.17 1.147.17 1.633 0 .424-.03.806-.056 1.18-.025.33-.056.64-.056.982 0 .962.222 1.934 1.324 3.06.662 1.242 1.028 2.256 1.028 2.98 0 .235-.03.42-.107.597z"/><path d="M314.38 56.654c.15.36.012.775-.34.93-1.386.683-2.544 2.317-2.89 4.086-.342 1.717.097 3.36 1.225 4.685.253.29.237.734-.036.992-.28.25-.704.238-.968-.05-1.433-1.656-1.986-3.735-1.557-5.907.43-2.203 1.87-4.2 3.656-5.067.337-.166.746-.01.91.33zM336.022 91.526c.372.02.662.33.64.724-.05.868 1.046 1.758 2.308 2.77 2.23 1.81 5.275 4.293 4.002 8.833-.113.382-.486.6-.842.486-.362-.105-.57-.508-.466-.86 1.024-3.64-1.293-5.543-3.527-7.342-1.5-1.23-2.91-2.368-2.83-3.97.023-.373.337-.683.715-.642zM343.11 106.77c-.206.92-.51 1.128-.743 1.2l-1.412-.03-1.525-.073c-.963.104-1.92.517-2.642 1.117l-2.384 1.903-.543.227c-.997.238-1.985.145-3.014-.237-.352-.134-.734.04-.868.403-.134.372.047.765.403.9 1.278.485 2.52.578 3.77.29l1.08-.487 2.39-1.892c.533-.454 1.267-.754 1.95-.827l1.184.062 2-.02c1.262-.383 1.573-1.76 1.666-2.213.088-.383-.14-.744-.497-.838-.36-.084-.733.155-.812.517zm-6.322 2.214zM323.834 94.215c1.474 2.4 1.587 5.48.305 8.46-.27.63.004 1.273.992 2.35 0 0 .352.308.3.62-.068.31-.077.57-.393.6-.223.02-.586.03-.865-.25-.657-.693-2.016-2.162-1.277-3.878 1.097-2.565 1.03-5.15-.212-7.146-.196-.32-.108-.764.212-.96.316-.208.735-.105.936.205zM309.717 96.398c1.313 1.334.874 3.3-.248 4.58l-1.682 1.43c-1.49 1.115-2.394 1.88-1.996 3.298.11.362-.104.744-.465.838-.352.113-.73-.083-.838-.465-.673-2.422 1.09-3.735 2.496-4.79l1.494-1.26c.378-.435 1.173-1.75.285-2.65-.264-.257-.274-.702 0-.97.26-.28.69-.28.952-.012zM306.46 112.51c.605 1.635 2.27 2.575 3.785 2.152l1.934-.89 2.026-.9c.802-.28 1.53-.03 2.167.197.518.155.967.33 1.334.185l.558-.176-.03.02c.03-.02.93-.353 1.172-.125.652.62-.305 1.045-.02.87l-1.07.692-.15.03c-.818.31-1.557.053-2.213-.175-.518-.176-.967-.32-1.36-.196l-1.774.827-2.224.992c-2.187.61-4.556-.723-5.4-3-.132-.35.038-.774.39-.91.352-.122.74.054.874.406zM318.82 41.316c.345.156.49.57.345.92-.646 1.51-.595 3.537.134 5.336.557 1.356 1.43 2.358 2.383 2.73.357.135.527.538.41.89-.135.362-.524.55-.87.414-1.333-.517-2.456-1.747-3.175-3.496-.863-2.13-.91-4.6-.13-6.432.156-.362.56-.517.9-.362z"/></g><g fill="#EAAA00"><path d="M322.614 68.92c.005-.012.015-.012.03-.012 2.43-.424 6.998-1.2 7.67-1.313.015.04.067.093.082.144.33.745.823 1.5 1.392 2.285l-8.362 1.448c-1.602.248-3.206.486-4.804.765-2.316.353-3.578.59-4.043.735-2.426.506-4.794 1.086-7.013 1.862-.75-.735-1.63-1.2-2.59-1.356.067-.31.144-.63.212-.963 4.767-1.665 10.423-2.524 15.93-3.35 0 0 .594-.104 1.494-.248zM339.404 88.062c-4.318 1.376-10.29 1.613-15.342.59.15-.093.294-.228.434-.362.207-.145.382-.28.58-.434.594-.486 1.2-.993 1.674-1.458 2.684.578 8.056.165 10.704-.787.538.797 1.16 1.574 1.867 2.37.037.03.07.07.084.082zM290.27 79.8c.47-.053 1.007-.114 1.395-.177.1.425.337 1.396.502 2.09.036.227.077.453.124.68-.464.622-6.173 8.244-6.483 8.657-.45.063-3.718.538-4.246.63-.428-.402-6.152-5.822-6.597-6.256-.202-1.138-.44-2.213-.678-3.28.812-.103 2.104-.32 2.508-.38l6.432 5.935c.14.123.33.185.527.175.18-.02.367-.155.477-.3 0 0 4.92-7.25 5.2-7.654l.84-.12zM272.895 82.312l.657 3.072c.346 1.934.594 4.013.594 6.526 0 .28 0 .58-.01.868-.74.113-2.787.424-3.765.59 0-.238.016-.477.016-.703 0-2.224-.196-4.127-.475-5.896h.006c-.036-.28-.113-.745-.217-1.294-.078-.36-.14-.723-.218-1.086-.124-.57-.238-1.107-.34-1.54.324-.053.81-.114 1.312-.187l2.44-.35zM253.415 85.156c.926-.134 2.958-.434 3.765-.55.615 2.566 1.168 5.38 1.225 9.03v1.52c-.75.083-2.823.373-3.796.507.01-.238.01-.497.01-.714 0-4.075-.564-7.085-1.205-9.794zM259.77 94.95c.012-.63.012-1.252-.01-1.83v-.663c.253-.34 6.298-8.75 6.624-9.204.3-.04.848-.104 1.396-.176.156.766.61 2.978.724 3.505-.373.527-5.264 7.447-5.58 7.87-.248.053-1.116.187-1.964.322-.393.04-.786.113-1.19.176zM294.293 89.79c.005-.21.02-.435.02-.643 0-2.648-.258-4.757-.61-6.598.02-.042.025-.105 0-.166-.294-1.48-.502-2.37-.662-2.938.952-.124 2.98-.434 3.786-.538.694 2.855 1.262 5.688 1.262 9.494 0 .258-.016.558-.02.827-1.04.166-2.308.342-3.775.56zM330.04 82.995c.077-.093.155-.197.248-.29.512-.58 1.148-1.324 1.437-1.654 1.128.54 2.384.828 3.724.776.16.393.34.807.52 1.23.16.322.322.643.498.932.015.052.047.104.077.145.016.052.03.083.04.113-2.037.362-4.647.29-6.975-.765.062-.072.217-.268.43-.485zM315.954 86.2c-.952-.165-1.924-.55-2.953-.972-1.137-.476-2.327-.9-3.613-1.127.232-.95.33-1.882.346-2.76 3.04.403 6.62 1.613 9.297 2.553l.693.228c-1.163.745-2.4 1.43-3.702 2.05-.014 0-.046.03-.066.03zM324.34 80.667c-1.897-1.22-5.44-3.99-8.16-6.598.71-.135 1.438-.26 2.136-.374.595-.103 1.236-.196 1.975-.31 1.444 1.573 4.304 3.88 6.32 5.078-.703.694-1.87 1.85-1.87 1.85l-.31.27c-.022.032-.058.052-.09.083zM304.54 74.876c.958.103 1.816.548 2.473 1.376l.037.04c.212.27.402.57.574.91.486 1.004.754 2.256.765 3.703.004.04.004.083.004.113-.005.55-.052 1.128-.15 1.727-.004.083-.02.156-.036.238-.34 1.934-1.173 4.054-2.626 6.154-.295.03-.585.092-.895.103-.047 0-.088.01-.145.01-.718.073-1.478.105-2.228.125l-.005-.786h-.022c1.345-2.184 2.348-5.007 2.348-7.386 0-.92-.144-1.778-.46-2.472-.274-.59-.667-1.034-1.143-1.355.62-.65 1.115-1.457 1.508-2.5z"/><path d="M301.692 93.17c.228-.785.404-1.56.506-2.356.005-.01.01-.02.01-.032.953 0 2.772-.072 3.916-.3.046-.01.06-.04.097-.062 3.698-.476 7.018-1.478 9.97-2.833.942-.27 3.895-1.883 5.493-3.092 0 0 .005-.01.01-.032 1.076-.744 2.084-1.53 3.047-2.337.04-.03.103-.05.134-.06l.765-.725.06-.05c3.135-2.844 5.658-5.937 7.71-8.77.223.31.435.702.564 1.086.068.196.125.402.134.59V75.6c-.03.042-.06.094-.06.094-8.534 11.82-16.078 18.005-32.75 18.906.13-.436.275-.922.394-1.43zM159.21 98.642c.9.693 1.67 2.327 2.006 4.416.13.775.192 1.572.192 2.317 0 1.8-.377 3.34-1.02 4.27-.46.073-2.56.394-3.913.6.502-1.21.816-2.606.816-4.033 0-.88-.07-1.748-.2-2.504-.31-1.954-1.003-3.36-1.846-4.426 1.33-.216 3.496-.558 3.966-.64z"/></g><path d="M304.666 6.93h-1.85v5.21h-1.253V6.93h-1.856V5.8h4.96v1.13zm8.402 5.21h-1.256V7.085h-.032l-1.774 5.057h-1.215l-1.71-5.056h-.03v5.057h-1.258V5.8h2.172l1.422 4.138h.036l1.494-4.137h2.15v6.34h.002z" fill="#FFF"/></svg>