<svg xmlns="http://www.w3.org/2000/svg" viewBox="-361.445 279.178 162.666 237.079"><path d="M-209.157 437.899v-94.444c.588-8.064 2.6-10.656 8.463-16.129-13.07-4.893-28.039-20.151-36.103-36.279-40.308 20.734-85.231 20.734-119.192-9.212-3.374-2.977-7.193-4.487-4.603 1.147 9.586 20.837 29.499 33.802 51.889 39.557-12.885 11.174-20.481 17.755-22.172 31.897-11.025.821-22.817 8.885-26.552 16.37-4.254 8.525 2.049 8.694 6.326 5.758 5.473-3.744 13.232-5.183 19.863-4.896l-.014 10.699c-11.017.821-21.866 8.885-25.6 16.37-4.255 8.523 2.048 8.69 6.321 5.76 5.478-3.746 12.661-5.76 19.293-5.473v32.25c0 12.671-6.331 19.001-10.083 22.459-3.732 3.456-1.674 7.063 3.753 4.893 11.383-4.556 23.21-15.353 25.904-31.796 4.355.561 9.579.607 13.255.023l-.005 4.421c0 12.671-6.335 19.001-10.077 22.459-.059.055-.096.112-.153.166-12.113 1.056-22.95 5.144-31.58 11.856-19.642 15.33-22.662 44.129-19.642 50.496.185.413 11.064-35.592 43.371-39.42 18.718-2.206 41.698 3.392 61.273 20.383 12.091-20.162 32.545-31.673 56.441-35.743-8.068-9.173-10.08-13.203-10.376-23.572zm-25.909-105.967v28.294c-12.921 3.896-31.561 3.755-43.189-.415v-3.687c0-10.021.839-22.714 9.08-30.72 7.87-.84 15.517-2.489 22.589-4.985l11.52 11.513zm-43.189 37.673c11.628 4.166 30.268 4.309 43.189.412v27.496c-12.921-3.896-31.561-3.755-43.189.415v-28.323zm-.768-43.584c-6.07 5.297-11.258 10.222-14.744 15.944-4.615-1.531-8.851-2.436-12.967-2.664 2.66-5.347 6.47-10.341 11.057-14.205a113.945 113.945 0 0 0 16.654.925zm-32.068 92.644v-62.541c0-2.751.436-5.667 1.225-8.616 4.551-.518 9.111-.05 13.003 1.339-.917 2.929-1.501 6.063-1.483 9.622l-.055 59.836c-3.248.701-8.24.783-12.69.36zm49.535 45.144c-12.503-6.182-24.823-9.389-36.327-10.047 10.327-6.942 19.628-19.181 19.628-35.444v-10.594c11.628-4.174 30.268-4.316 43.189-.417v40.96c-8.064 2.302-17.85 8.058-26.49 15.542z" fill="#fff"/></svg>