<svg xmlns="http://www.w3.org/2000/svg" viewBox="0 0 176.564 183.003"><title>Los Angeles Dodgers primary light logo</title><g fill="#FFF"><path d="M.165 100.795c-.633 5.772.456 9.62 4.92 11.492 3.277 1.375 7.08-1.55 8.172-3.188 1.796-2.68 2.03-5.54 2.03-5.54s-6.25 6.008-9.845.52c-2.08-3.175-.97-12.603 11.27-19.255 12.24-6.64 18.314-1.222 18.314-1.222 7.36 4.165 7.684 16.498 5.514 26.068-1.626 7.142-5.004 14.668-12.684 16.063-2.883.527-3.99.218-6.614.103.575-1.31 2.73-6.112 3.352-13.792 1.822-22.527 4.27-24.693 6.49-28.047-16.642 8.452-11.837 37.245-15.09 41.98-12.204 1.798-14.987 11.773-12.567 13.33 1.835 1.175 10.126-1.074 15.772-10.182 4.093-.077 17.15 3.503 25.116-10.997 5.395-9.833 7.095-26.968-1.55-35.44-12.468-12.23-40.634.266-42.6 18.107zM7.62 134.48c-.568-1.453 3.372-4.905 6.9-5.06-1.34 2.372-6.327 6.51-6.9 5.06zM169.31 69c-1.807-5.148-8.65-4.125-10.384-2.493 0-6.78-3.423-8.593-6.964-12.758-.79-2.926 1.5-3.883 1.822-6.384.643-5.064-7.3-3.58-5.052 6.768-.948 4.827-6.067 19.61-8.73 19.988-1.534.218-1.617-2.263-.83-5.206.787-2.95 5.042-8.285 2.417-10.965-1.515-1.573-4.365.772-6.904-.635 0 0 .08-2.134-.58-2.93-.663-.798-1.82-.496-2.518.037-1.918 1.478-2.02 5.54-.973 7.61-.784 5.05-1.417 7.09-3.882 13.888-2.526 7-8.535 10.335-9.888 6.074 11.983-11.537 9.34-15.97 7.423-17.546-3.085-2.532-12.654 2.05-13.13 16.6-.013.6.08 1.37.203 2.096-.944 1.112-2.608 3.162-4.704 6.054.98-6.446 2.36-15.785 2.802-19.25 0 0-2.388 1.544-5.03 1.87l-.36 2.398c-2.56-3.856-14.482-.23-14.06 18.613-.597 5.79-3.707 6.44-3.787 5.044-.408-6.87 3.867-27.13 5.306-34.48 0 0-2.815 1.58-4.99 1.612 0 0-3.68 18.65-3.764 18.677-1.918-1.517-3.21-1.318-4.694-.977-4.49 1.035-7.982 7.346-8.192 11.363-.79.783-1.707 1.51-2.63 1.972-.568-2.403-1.663-4.608-4.12-5.347-8.14-2.48-14.778 9.57-12.638 20.92 0 0 .788 3.156 3.847 5.16 5.716 2.855 13.188-4.877 13.268-16.934 1.106-.72 2.108-2.062 2.108-2.216-.49 3.663.615 10.508 4.754 11.1 4.41.635 6.883-4.66 7.57-6.872.537 1.356 1.894 2.52 3.548 2.45 3.77-.155 4.956-4.982 5.666-7.045 3.358 5.334 8.77.424 9.952-2.73l-.4 2.608c-3.055 3.683-8.765 12.835-8.765 12.835-10.58 3.838-31.184 11.44-39.684 24.172 6.91-1.37 12.84.392 12.84.392 1.378-3.74 9.787-11.235 22.127-15.354-3.03 6.138-2.436 15.167 2.744 15.065 8.957-.173 11.914-15.566 13.16-21.415 7.95-3.42 22.167-8.895 37.02-15.277 13.805-5.93 33.555-15.833 29.08-28.552zM63.554 97.46s-.992.27-1.953.16c-1.553-.18-2.674-.92-2.81-1.562-.738-3.47 4.593-2.982 4.763 1.4zm-6.276 13.785c-3.086-.598-2.97-8.818-.843-12.417 1.38 2.513 5.01 2.783 7.227 2.45.17 3.572-2.603 10.706-6.385 9.967zM81.862 89.38c-.05.7-.833 6.8-1 7.462-.777 3.13-2.346 5.335-4.53 5.25-3.758-.134-2.06-16.034 3.293-15.495 1.066.103 2.38.823 2.237 2.783zm10.585 37.045c-2.71.49-1.314-6.394.787-9.672 2.754-1.048 5.077-2.16 5.077-2.16-1.43 6.775-2.62 11.26-5.864 11.832zm6.896-19.114s-1.424.605-2.082.83c.925-1.356 2.597-4.537 2.96-5.135-.145 1.068-.878 4.306-.878 4.306zM121.3 68.12c3.05 1.555-2.264 7.97-4.693 10.604.357-5.938 3.326-11.31 4.692-10.604zM97.344 93.224c-4.142.77-2.792-15.335 3.323-16.048 1.166-.147 2.388 1.292 2.15 3.632-.142 1.324-.482 4.152-1.215 6.46-.78 2.46-2.09 5.544-4.258 5.956zm66.922-15.6c-5.122 7.74-19.153 13.164-59.99 28.01.367-2.577 1-7.25 1.524-10.367.914-1.613 1.987-3.368 3.16-5.077l.324-.457c.922-1.31 1.905-2.564 2.908-3.676.954 1.562 2.413 3.702 5.43 3.618 10.107-.257 14.542-19.23 16.117-26.634.764.168 1.763.303 2.483.27-.736 2.4-6.382 15.22 1.112 17.4 7.465 2.177 12.077-18.447 13.41-22.94 4.53 5.258 3.393 10.786 1.083 11.943-1.185.584-2.532-1.208-3.846.038-1.967 1.865-.662 4.976 2.05 5.438 3.856.655 6.414-2.005 8.99-4.692.798-.823 3.812-2.66 5.68-1.356 2.8 1.936.782 6.635-.435 8.485z"/></g><path d="M121.517 29.583c2.953-1.787 5.25-4.602 6.37-8.066 1.127-3.496.85-7.114-.49-10.258-6.243 3.78-8.762 11.626-5.88 18.323z" fill="#FFF"/><path d="M109.402 30.99c1.466.483 2.986.72 4.51.72 1.94 0 3.807-.386 5.53-1.086-3.442-7.84-.48-17.064 6.886-21.42-1.774-2.83-4.505-5.072-7.92-6.17-1.466-.47-2.983-.714-4.503-.714-1.99 0-3.9.392-5.653 1.125 1.636 3.786 1.86 7.976.582 11.935-1.266 3.953-3.888 7.224-7.416 9.345 1.77 2.866 4.527 5.154 7.984 6.266z" fill="#FFF"/><path d="M106.63 14.673c1.082-3.374.91-6.94-.44-10.174-2.906 1.792-5.162 4.587-6.268 8.013-1.112 3.452-.864 7.025.437 10.142 2.975-1.832 5.19-4.62 6.27-7.982z" fill="#FFF"/><path d="M129.04 9.25c-2.072-4.037-5.595-7.032-9.923-8.427C117.423.276 115.665 0 113.904 0c-7.41 0-13.917 4.743-16.19 11.8-2.875 8.92 2.05 18.53 10.978 21.408 1.694.54 3.452.816 5.22.816 7.406 0 13.914-4.737 16.182-11.794 1.395-4.33 1.016-8.94-1.054-12.98zm-1.154 12.267c-1.118 3.464-3.416 6.28-6.37 8.066-2.882-6.697-.362-14.545 5.88-18.324 1.342 3.143 1.618 6.76.49 10.257zm-27.964-9.004c1.106-3.426 3.362-6.22 6.267-8.014 1.35 3.232 1.522 6.8.44 10.173-1.08 3.36-3.295 6.15-6.27 7.982-1.302-3.117-1.55-6.69-.438-10.142zm8.91 2.867c1.28-3.96 1.055-8.15-.58-11.935 1.75-.733 3.663-1.125 5.652-1.125 1.52 0 3.037.244 4.502.713 3.416 1.1 6.148 3.342 7.92 6.17-7.364 4.357-10.327 13.58-6.886 21.42-1.722.7-3.59 1.087-5.53 1.087-1.523 0-3.043-.238-4.51-.72-3.456-1.11-6.214-3.4-7.984-6.266 3.53-2.12 6.15-5.392 7.417-9.344zM35.553 132.262c-.56-.315-1.26-.11-1.575.443l-9.22 16.595c-.315.56-.112 1.266.45 1.58.18.097.37.142.56.142.41 0 .803-.212 1.018-.598l9.22-16.595c.312-.553.106-1.26-.453-1.568zM62.913 85.26l17.76-31.794c.313-.565.114-1.273-.45-1.58-.558-.316-1.268-.11-1.577.455L60.882 84.137c-.31.56-.11 1.266.45 1.574.183.103.372.155.562.155.41 0 .807-.218 1.02-.604zM95.793 23.864c-.56-.315-1.27-.11-1.578.456l-12.04 21.665c-.31.56-.11 1.266.45 1.58.18.098.37.142.564.142.408 0 .803-.212 1.01-.598l12.045-21.667c.31-.558.107-1.265-.452-1.58zM55.54 137.93c-.594-.257-1.275.012-1.532.59l-6.244 14.263c-.257.585.01 1.273.595 1.53.153.057.31.102.465.102.45 0 .874-.264 1.067-.7l6.244-14.256c.256-.585-.014-1.273-.595-1.53zM91.612 55.472c.15.064.312.096.463.096.45 0 .874-.263 1.06-.7l8.626-19.7c.258-.59-.008-1.27-.597-1.528-.585-.263-1.27.007-1.526.598l-8.622 19.706c-.258.582.013 1.264.597 1.528zM75.81 140.765c-.61-.2-1.26.147-1.45.765L62.01 181.5c-.184.61.154 1.265.768 1.458.116.026.228.045.347.045.488 0 .948-.32 1.106-.816l12.347-39.976c.186-.61-.155-1.26-.768-1.445zM80.088 126.914c-.61-.187-1.262.147-1.446.758l-2.198 7.102c-.193.617.15 1.273.768 1.46.11.03.232.05.34.05.496 0 .96-.32 1.107-.816l2.194-7.108c.19-.61-.148-1.266-.766-1.446zM107.867 37c-.614-.18-1.266.16-1.456.77L97.27 67.37c-.19.617.154 1.266.768 1.452.113.04.232.05.34.05.496 0 .96-.314 1.106-.815l9.15-29.597c.19-.616-.155-1.27-.765-1.458zM93.54 138.065c-.627-.135-1.247.25-1.385.874l-3.43 15.36c-.142.63.252 1.246.876 1.395.087.02.174.02.258.02.53 0 1.012-.36 1.125-.907l3.44-15.36c.136-.63-.256-1.24-.883-1.383zM110.51 115.937c-.626-.116-1.233.295-1.355.932l-4.323 22.385c-.116.636.296 1.24.93 1.362.086.012.173.012.253.012.527-.013 1-.4 1.096-.945l4.33-22.392c.115-.63-.3-1.234-.93-1.356zM115.96 37.707c-.626-.135-1.246.257-1.387.88l-5.386 24.115c-.14.63.25 1.254.88 1.39.088.018.17.025.252.025.53 0 1.008-.367 1.13-.906l5.392-24.113c.134-.63-.257-1.248-.88-1.39zM125.61 32.205c-.63-.122-1.233.302-1.345.926l-4.432 24.154c-.113.63.302 1.234.93 1.356.073.007.144.013.217.013.546 0 1.035-.392 1.138-.95l4.422-24.148c.12-.63-.3-1.234-.93-1.35z" fill="#EF3E42"/><g fill="#FFF"><path d="M175.224 79.752c0-.745-.437-.86-1.073-.86h-1.342v2.77h.582v-1.107h.48l.638 1.106h.636l-.67-1.105c.487-.03.75-.308.75-.803zm-1.06.316h-.775v-.675h.635c.276 0 .623 0 .623.308 0 .297-.175.368-.484.368z"/><path d="M173.917 77.625c-1.478 0-2.638 1.19-2.638 2.66 0 1.48 1.16 2.655 2.637 2.655 1.48 0 2.648-1.176 2.648-2.654 0-1.47-1.167-2.66-2.648-2.66zm0 4.743c-1.135 0-2.057-.887-2.057-2.082 0-1.183.922-2.076 2.057-2.076 1.14 0 2.07.893 2.07 2.076 0 1.195-.93 2.082-2.07 2.082z"/></g></svg>