<svg xmlns="http://www.w3.org/2000/svg" viewBox="0 0 235.729 230.436"><title>Miami Marlins Primary Logo on Light</title><path d="M153.281 49.716l-42.054 77.253L80.28 69.565c15.436-9.833 30.862-17.629 38.903-21.497l5.634-2.71-14.241-6.682L184.567 0s-6.262 1.809-27.002 8.723c-15.859 5.295-47.064 17.138-50.193 18.092 0 0-11.255 4.172-25.036-1.819-14.308-6.213-29.601-13.63-29.601-13.63 2.567 14.178-5.482 26.623-12.975 36.188-7.249 9.249-32.74 35.449-32.419 59.527.374 27.929 25.5 33.233 25.5 33.233L0 222.551h53.238l22.411-57.285 35.551 65.17 35.587-65.165 22.353 57.28h53.269L153.281 49.716zM39.425 123.863a24.608 24.608 0 0 1-1.172-2.398 23.343 23.343 0 0 1-.691-3.307c-1.266-9.209 6.316-19.349 15.271-27.854l-13.408 33.559z" fill="#fff"/><path d="M74.954 65.962c10.274-6.606 23.057-13.808 39.647-22.117h.004l-4.988-2.336-2.362-1.114c-9.712 4.858-23.365 12.306-35.4 19.826l3.099 5.741M52.446 139.646c-.281-.125-.575-.267-.575-.267-6.516-2.612-14.094-7.782-17.914-14.263-3.588-6.731-3.575-15.578 4.212-26.828.018-.036.049-.067.076-.102a62.67 62.67 0 0 1 2.032-2.759c.071-.094.165-.192.232-.285a69.689 69.689 0 0 1 2.215-2.679c.138-.156.299-.321.437-.481a97.223 97.223 0 0 1 5.531-5.75c3.24-3.107 6.806-6.218 10.876-9.418.86-.673 1.761-1.355 2.67-2.041l4.515-11.295a220.602 220.602 0 0 0-4.649 3.102c-45.517 31.31-42.031 52.407-29.154 63.202 2.251 1.93 4.836 3.708 7.43 4.97 3.584 1.729 6.984 3.338 10.604 4.466.419.125.829.236 1.239.365l.209.062h.014" fill="#0077c8"/><path d="M152.872 56.688l-41.658 76.518-34.86-64.653C92.73 57.904 109.556 49.4 117.896 45.388l-3.294-1.542c-16.59 8.308-29.373 15.507-39.647 22.117l-5.282-9.797-7.435 18.605c-.909.686-1.805 1.364-2.67 2.041a146.399 146.399 0 0 0-10.876 9.418 95.395 95.395 0 0 0-5.531 5.754c-.138.161-.299.321-.437.477a72.769 72.769 0 0 0-2.215 2.679c-.067.094-.161.187-.232.281a61.923 61.923 0 0 0-2.032 2.763c-.022.036-.054.067-.076.103-7.782 11.25-7.8 20.098-4.212 26.828 3.824 6.481 11.393 11.651 17.914 14.263-.076-.04-.174-.08-.25-.125-.241-.112-.713-.357-.713-.357a6.263 6.263 0 0 1-.365-.196c-.125-.067-.25-.134-.37-.196-3.575-1.952-6.289-4.332-6.695-4.832l26.191-66.859.004.004 41.6 76.981 41.6-76.981 57.824 147.714h-36.015l-26.659-68.241-36.75 68.005-36.746-68.005-.343.896v-.013l-26.347 67.358h-36.01l29.547-75.497c.459.076.94.134 1.409.209a74.813 74.813 0 0 1-4.983-.972c-.018 0-.04-.004-.053-.004-32.727-16.882-24.151-58.7 67.276-101.115 34.107-16.166 57.276-28.125 57.276-28.125l-9.788 3.749c.793-.307 1.301-.499 1.301-.499s-18.81 8.585-22.046 10.007C113.1 30.479 88.05 41.565 77.642 46.873c-2.068 1.056-5.429 2.893-9.164 5.077C33.007 74.232 6.995 99.197 20.21 127.893c-15.141-17.584-1.863-43.387 14.152-61.221C45.046 54.736 50.11 49.806 55.557 40.954c4.288-6.94 7.034-14.228 6.793-21.555.241.111.495.227.735.339l-6.445-3.24c.722 2.358-.833 16.648-10.047 29.253-10.082 13.75-44.867 44.162-34.316 72.795 5.848 15.881 20.896 19.023 24.644 19.616l-.018-.005-32.516 81.422h46.824l23.998-61.332 35.992 65.985 36.037-65.985 23.931 61.332h46.85L152.872 56.688m-112.76 73.465a2.364 2.364 0 0 1-.196-.227c-2.715-3.428-4.061-6.463-4.466-7.466-.343-1.128-.624-2.416-.833-3.896-1.729-12.574 10.015-26.226 25.478-38.435l-19.983 50.024z" fill="#c4ced4"/><path d="M46.108 139.646c.392.036.775.067 1.168.094-.392-.027-.776-.063-1.168-.094M51.926 139.687c.062-.004.125-.013.178-.013a27.783 27.783 0 0 1-3.053.129c.958.014 1.921-.026 2.875-.116" fill="#c4ced4"/><path d="M55.558 40.955c-5.451 8.852-10.51 13.782-21.199 25.719-16.015 17.833-29.293 43.636-14.147 61.215C6.992 99.194 33.004 74.233 68.48 51.946c3.731-2.179 7.092-4.016 9.164-5.072 10.408-5.309 35.453-16.394 54.125-24.591 3.236-1.422 22.046-10.011 22.046-10.011l-1.306.499c-6.561 2.496-37.472 14.25-44.221 16.875-.098.045 0 0-.036.009-3.579.892-8.66 1.792-12.28 1.649-2.871-.08-7.751-.686-13.296-3.013-1.662-.709-11.415-4.729-19.59-8.554a35.926 35.926 0 0 0-.735-.339c.241 7.329-2.505 14.612-6.793 21.557" fill="#f60"/><path fill="#ffd100" d="M71.058 89.501l38.778 71.157 1.511 2.821 1.525-2.821 38.524-71.009v.013l1.475-22.848-41.599 76.982-41.6-76.982 1.061 17.482.321 5.214z"/><path fill="#0077c8" d="M183.276 206.99l-33.751-85.53-38.252 70.75-38.145-70.554-33.666 85.219H25.145l-.08.191-13.238 7.462h36.01l26.69-68.241 36.746 68.009 36.746-68.009 26.659 68.241h36.019l-13.256-7.538z"/><path d="M71.056 89.51l-.326-5.215-1.06-17.485-26.191 66.863c.406.504 3.116 2.879 6.69 4.827.125.067.25.134.37.205.12.062.241.129.365.192L71.056 89.51M11.826 214.529l13.242-7.461.076-.196h-.014l25.411-67.077a29.9 29.9 0 0 0 1.386-.112c-.958.094-1.921.134-2.875.121a33.55 33.55 0 0 1-1.774-.067 60.605 60.605 0 0 1-1.172-.089 56.605 56.605 0 0 1-3.325-.406c-.468-.071-.954-.129-1.408-.205l-29.547 75.492M197.44 206.99l13.26 7.538-57.829-147.71-1.475 22.844z" fill="#f60"/><path d="M50.541 139.796L25.13 206.873h14.33l33.666-85.214 38.145 70.55 38.257-70.75 33.751 85.53h14.161L151.396 89.661v-.013l-38.524 71.013-1.524 2.817-1.511-2.817L71.058 89.5l-.004.009-20.147 49.387s.473.249.709.357c.272.129.544.267.829.392h-.013c-.031 0-.161.014-.33.027-.053.004-.111.013-.174.018-.424.035-.985.084-1.387.106" fill="#fff"/><path d="M235.729 214.126v5.451h-1.11v-4.337h-.036l-1.582 4.337h-1.074l-1.52-4.337h-.036v4.337h-1.11v-5.451h1.926l1.275 3.561h.022l1.319-3.561h1.926zm-11.87.976h1.649v4.475h1.114v-4.475h1.64v-.976h-4.404v.976z" fill="#c4ced4"/></svg>