<svg xmlns="http://www.w3.org/2000/svg" viewBox="0 0 277.298 145.008"><title>New York Mets primary light logo</title><path d="M265.273 61.506c-1.885-5.695-4.04-12.12-3.732-17.782.007-.066.007-.144.018-.21l.16-2.62-2.454-.94-9.687-3.66-1.007-.376-2.106-.796-.558 1.238-.824 1.79c-2.72 5.995-9.316 17.13-14.58 25.557-11.268 18.014-15.537 22.603-17.08 23.72-.332.243-.54.332-.664.365-.857.155-1.813-.11-2.488-.696-.636-.53-.978-1.338-.94-2.18.393-3.814 10.915-40.472 13.63-49.74l30.813-5.053 3.002-11.136 1.394-5.152-25.667 4.147-5.136.83L232.402 0l-23.388 3.56s-4.043 13.79-5.613 19.087l-13.926 2.29-5.02 16.61 5.346-.918 9.034-1.516c-.48 1.68-.973 3.428-1.487 5.22-4.152 14.574-9.2 31.494-10.733 34.357-1.166 2.157-6.17 7.84-12.33 12.95-6.86 5.684-15.16 10.67-21.22 9.3-.222-.054-.41-.1-.586-.154 6.845-3.727 22.287-13.326 24.836-25.4 1.24-5.818.194-10.285-1.78-13.613-2.714-4.534-7.215-6.934-10.168-7.564-14.338-1.97-23.378 7.872-26.512 12.042-6.536 7.497-12.31 20.27-13.774 30.178-.16.874-.232 1.814-.226 2.81-21.447 14.396-19.49 6.202-18.566-4.148 1.1-12.63 8.188-39.633 19.97-76.104.316-.95 2.267-7.31 2.267-7.31l-25.572 4.237-.57 2.244c-1.387 5.43-14.73 35.552-25.03 58.432 1.814-16.477 4.705-38.77 8.332-52.727l1.366-5.253-27.035 4.313-.664 2.566c-.79 3.04-2.266 8.726-9.29 28.652-2.144 6.116-11.6 33.474-12.157 35.077-5.59 14.198-11.926 30.255-17.853 30.807-1.2.12-2.035-.232-2.455-1.028-.725-1.34-.288-5.265 3.295-11.955l3.776-7.066-15.598 3.925-.752 1.227c-8.117 13.16-10.422 25.036-6.34 32.566 2.537 4.668 7.247 7.343 12.942 7.31h.542c9.527-.33 19.153-7.718 25.738-19.75 2.78-5.11 7.265-15.957 11.22-26.054-.703 11.954-1.958 24.605-5.823 35.387l-1.874 5.21 19.52-1.692 18.19-37.19c-1.958 13.503-.25 21.775 5.09 25.81 2.76 2.09 6.178 3.097 10.175 2.953 8.222-.275 17.206-5.383 23.322-9.63l9.615-6.835c3.848 4.202 8.984 6.934 14.824 7.72 1.144.153 2.355.253 3.67.253 9.014 0 21.946-4.312 37.97-21.188.845 1.89 2.023 3.772 3.19 5 .51.552 1.06 1.037 1.642 1.513 2.743 2.135 6.247 3.296 10.428 3.43 10.682.33 22.98-6.56 27.485-15.262 4.823 5.088 12.49 7.278 18.64 6.758 5.087-.41 14.348-2.787 19.214-13.967 3.545-8.127.515-17.205-2.42-25.964zm-105.9 11.51c2.156 1.56-3.417 8.87-8.974 10.55 1.045-5.992 7.198-11.83 8.973-10.55zm82.888 11.78c-2.615-1.12-1.46-5.486 5.02-9.28l-5.903-2.92c1.542-2.487 3.03-5.33 4.296-8.745 2.68 6.436 3.936 24.097-3.412 20.945z" fill="#FFF"/><path d="M261.866 62.678c-2.14-6.358-4.312-13.08-3.915-19.318l-9.685-3.66c-3.06 6.723-10.268 18.688-14.802 25.953-15.547 24.85-18.41 25.38-20.12 25.71-1.914.343-3.953-.21-5.44-1.492-1.455-1.248-2.268-3.095-2.185-5.04.11-3.74 14.37-52.738 14.41-52.738l30.758-5.032 2.416-8.78-30.84 5 5.052-18.823-15.78 2.345s-5.585 19.053-5.612 19.053L192.2 28.143l-2.643 8.947 14.143-2.355s-11.152 40.406-14 45.704c-2.388 4.445-23.243 27.257-37.47 24.03-5.867-1.328-4.555-5.187-4.555-5.187s23.21-10.87 26.108-24.572c2.543-12.12-7.354-16.818-10.035-17.03-11.147-1.315-19.983 8.008-22.16 10.916-6.508 7.453-12.16 20.536-13.193 29.537-.044.874-.01 1.868.1 2.864-28.702 19.264-26.633 5.795-25.727-6.214 1.897-21.83 19.845-75.893 20.696-78.68l-17.643 2.92c-2.342 9.187-34.09 78.51-34.09 78.51s4.09-49.806 10.533-74.554l-19.396 3.084c-.77 2.92-2.145 8.46-9.46 29.26-2.23 6.325-12.187 35.133-12.187 35.133-7.918 20.114-13.282 32.378-20.84 33.097-3.743.354-5.38-1.9-5.904-2.886-1.996-3.67.54-10.162 3.29-15.304L11.33 107c-7.337 11.9-9.686 22.647-6.236 29.017 1.918 3.527 5.396 5.474 9.81 5.452 6.61-.012 16.022-4.812 23.182-17.916C43.848 113.026 57.4 76.16 57.4 76.16c-1.68 15.635-.597 40.472-7.476 59.625l12.016-1.04L94.5 68.197c-10.234 31.15-12.236 50.127-4.85 55.71 6.547 4.944 17.82 1.25 29.31-6.734l12.313-8.77c8.47 12.343 29.742 17.13 58.166-16.22-.343 3.892.885 6.58.885 6.58 2.106 4.93 6.176 7.518 12.08 7.696 9.356.275 20.464-5.85 24.246-13.394l3.09-4.91c2.87 6.812 11.392 10.384 18.39 9.81 4.303-.354 12.126-2.356 16.252-11.855 3.014-6.867.315-14.905-2.516-23.432zm-100.23 7.476c4.046 2.62 1.846 7.796-2.782 12.054-3.38 3.096-8.205 5.75-12.685 7.354-1.074-9.62 8.52-23.875 15.465-19.408zm86.536 17.34c-.985.884-3.705 2.72-7.69.564-2.036-1.106-3.258-3.108-3.302-5.397-.023-1.403.32-3.98 2.885-6.512l-3.853-2.012c1.665-2.73 9.494-16.842 10.51-19.628l2.24 7.995c2.13 5.107 4.5 20.19-.79 24.99z" fill="#FF5910"/><path fill="#FFF" d="M275.357 95.1l-1.33 3.595h-.018l-1.29-3.594h-1.95v5.51h1.12v-4.37h.028l1.538 4.37h1.1l1.603-4.37h.016v4.37h1.122V95.1M265.305 96.096h1.665v4.513h1.118v-4.514h1.67V95.1h-4.453"/></svg>