<svg xmlns="http://www.w3.org/2000/svg" viewBox="0 0 307.802 51.673"><title>New York Yankees wordmark light logo</title><g fill="#FFF"><path d="M71.442 13.928c-.466.118-.29.588.176.94.46.354 1.446 1.297 1.56 2.94.526 7.406-10.565 15.648-12.75 13.695-1.03-.915 2.898-6.7 5.448-11.402.637-1.176.757-1.88-1.273-1.763-2.03.117-1.826.457-2.437 1.645-1.592 3.078-2.614 5.018-4.348 7.868-2.135 3.512-5.105 4.81-5.97 4.122-1.856-1.464 2.126-7.08 4.98-11.343 1.247-1.854.063-2.116-.81-2.058-.636.042-1.72-.403-1.97.06-1.587 2.947-3.69 5.71-4.66 8.273-3.083 4.636-8.474 6.935-10.935 4.186-.764-.853-.945-2.038-.766-3.326 5.243-.006 11.98-3.858 9.926-8.194-2.12-4.48-13.07 1.244-13.125 7.95-.74.425-2.135 1.227-3.237 2.318-.9.89-2.933 1.887-3.707 1.226-4.79-4.05 16.598-20.836 9.865-28.773-3.745-4.42-10.605 2-14.256 5.818 0 0 2.002-5.5 2.956-7.346.288-.565-.24-1.027-.694-.587-1.078 1.03-2.958 1.763-6.26 1.94h-.298c-3.36 0-13.737-5.938-18.72 2.408-.312.513-.06 1.13.462.588 1.127-1.185 3.197-2.028 5.566-1.99 5.243.086 12.02 2.79 18.32-1.066-7.485 14.163-15.252 27.51-16.175 28.92-.927 1.41.116 1.88 1.157 1.88 1.048 0 2.03.118 2.61-1.057.582-1.175 7.827-16.222 10.147-20.102 2.316-3.88 10.554-12.525 13.74-9.17 4.462 4.704-18.097 23.63-10.325 29.39 2.047 1.514 4.293.272 6.004-1.172 1.207-1.014 1.962-1.632 2.953-2.072.143.787.403 1.578.902 2.362 2.073 3.258 8.404 3.762 13.274-1.764l.115-.335c-.107 1.115.104 2.187.81 3.216 1.224 1.777 4.697 1.47 8.175-2.176.176 1.117 1.09 2.122 1.338 2.352 3.485 3.276 16.27-6.773 15.884-14.813-.17-3.47-3.193-3.702-3.655-3.585zm-25.825 5.437c1.535 1.36-2.438 7.265-7.716 7.365 1.173-4.28 5.75-9.104 7.717-7.365zM291.017 17.897c-1.078.703-2.363 2.054-2.438 3.928-.13 3.18 4.485 3.69 4.813 6.584.506 4.548-8.536 4.775-8.45.043.09-.418.15-.532.444-.647 1.176-.393 2.278-1.698 1.448-2.72-.452-.646-2.023-.44-2.763 1.08-.005.004-.007-.006-.01 0-2.106 3.975-7.154 7.493-9.503 5.328-1.007-.928-1.14-2.555-.768-4.358 3.366-.42 7.26-1.99 8.984-4.14 2.292-2.85.237-7.302-4.078-5.933-3.394 1.077-7.498 5.68-8.084 9.96-2.477 3.96-7.174 6.276-9.246 4.472-1.036-.907-1.177-2.538-.795-4.356 3.363-.422 7.11-2.105 8.843-4.258 2.292-2.85.403-7.187-3.902-5.82-3.25 1.032-7.116 5.256-7.962 9.373-2.705 3.99-8.46 6.504-9.15 5.44-.954-1.47 3.474-4.555 1.214-8.228-.216-.348-.474-.61-.75-.835 1.692-1.924 3.183-4.276 4.926-4.16.93.06.984.763.984.763-.464.127-.713.41-.895.634-.665.827.038 2.513 1.536 1.84.534-.24 1.03-.885 1.1-1.535.15-1.353-1.51-2.482-2.612-2.468-2.634.036-4.392 2.49-6.017 4.377-.95-.344-1.98-.305-2.803-.132 4.702-10.17 10.983-22.642 15.377-19.644 2.392 1.634-.754 6.466-2.495 7.348-.58.292-.464.348-.232.41.844.227 2.927-.534 4.03-2.155 1.15-1.695 1.05-4.73-.44-6.13-3.358-3.156-9.98 2.366-13.02 7.332-2.79 4.548-5.81 10.234-8.242 15.587-1.232 1.167-2.994 2.99-3.72 3.706-1.736 1.705-4.004 3.468-5.104 2.998-2.986-1.278 8.928-10.11 2.494-12.873-2.866-1.23-6.145 1.47-7.596 3 .28-.54.178-2.292-1.214-3.027-3.51-1.85-6.52 2.106-9.234 6.918-2.152 3.825-4.756 7.357-6.565 6.72-2.08-.735 4.86-10.878 5.83-12.315.97-1.444.98-1.614-.237-1.645-.96-.026-1.648.03-2.2.117-.402.065-.727.06-1.274 1.058-.127.228-.28.48-.418.718-.166-.472-.708-1-1.092-1.306-4.31-3.438-12.164 2.932-13.275 8.794-1.43 1.258-3.656 2.575-6.204 3.842-.023.012-.048.02-.072.033.28-.687.558-1.373.828-2.066 4.406-11.32 7.247-22.42 13.798-26.298.426-.252.408-.88-.464-.587-4.58 2.292-8.946 7.265-12.176 14.05-.506 1.063-1.955 4.37-3.572 8.49-4.03 3.918-10.205 8.575-12.66 5.732-4.1-4.73 15.83-27.096 16.058-27.45.23-.35.12-.822-.35-.587-.46.237-1.274.47-4.056.47-2.784 0-8.433-2.31-12.81-1.763-4.234.53-7.018 3.94-7.363 4.703-.285.622-.184 1.24.116.94.638-.646 3.024-2.74 6.265-2.998 3.706-.293 7.43.89 10.084 1 1.75.07 2.94.036 4.582-.354.124-.028.586-.23.227.236-2.794 3.72-6.668 6.588-8.54 8.555-6.56 6.87-9.88 13.61-6.064 18.247 1.42 1.728 5.16 2.468 10.546-1.998 1.98-1.675 2.88-2.406 3.152-2.624-.01.024-.02.046-.028.07-.83 2.193-1.617 4.403-2.424 6.553-3.635 2.25-8.665 3.503-13.57 7.87-5.754 5.125-3.62 14.192 6.694 7.48 4.852-3.154 8.234-9.34 11.084-16.11 2.53-1.27 5.245-2.68 6.81-3.833.05 1.266.45 2.466 1.386 3.47 1.636 1.762 5.482.853 8.236-2.48.047 1.303.558 2.528 1.648 2.98 3.588 1.493 6.492-2.954 8.946-7.294 1.93-3.407 3.54-5.516 5.16-6.362 1.68-.872 2.4.374 1.83 1.52-1.54 3.113-4.004 7.32-6.055 11.17-.38.72.176.76.527.76.344 0 1.334 0 1.97.062.634.057 1.07-.325 1.68-1.764.508-1.21 4.117-7.642 4.117-7.642 2.55-3.468 5.63-5.184 6.955-4.113 1.305 1.053-3.443 5.87-4.643 9.343-.457 1.344.052 4.83 3.77 3.805 1.006-.276 2.628-1.063 4.35-2.862 1.337-1.39 2.295-2.215 2.745-2.583-.65 1.525-1.254 3.015-1.758 4.404 0 .117-.742 1.284 1.274 1.057 1.566-.176 1.88-.646 2.55-1.938.776-1.584 1.71-3.636 2.747-5.91 1.452.564 2.687.068 3.798-.874.396 1.434-3.117 4.656-1.83 7.7.537 1.287 2.09 2.28 5.213.96 2.546-1.075 5.31-3.28 6.432-4.577.03 1.355.448 2.65 1.427 3.745 2.064 2.316 7.246 1.956 11.75-3.246.118 1.178.552 2.29 1.435 3.245 2.667 2.874 7.933 1.2 11.695-3.6.005.13-.014.237 0 .378.57 5.45 10.102 5.545 12.234.353 1.926-4.696-5.006-5.576-4.606-8.64.452-3.49 6.32-3.394 6.417-.455 0 .11-.082.29-.255.317-.32.052-.656.028-1 .212-1.8.95-1.058 3.23 1.108 2.514.834-.277 1.65-1.26 1.692-2.07.234-4.08-5.114-5.11-8.273-3.037zm-114.385 30.73c-4.926 3.775-7.11 1.683-5.68-1.822 1.255-3.098 5.488-6.586 13.705-11.122-2.095 5.376-4.425 10.182-8.025 12.944zm29.946-20.982c-.195.34-.33.73-.436 1.13-1.786 2.696-5.484 4.834-6.9 3.16-1.905-2.252 5.245-15.135 9.912-12.138.595.376.77 1.2.76 2.006-1.084 1.793-2.305 3.764-3.336 5.842zm38.23-3.233c-.367 0-.524-.178-.592-.387l.337-.737c.113-.07.213-.15.37-.17.7-.09 1.326.06 1.86.315-.635.587-1.28.98-1.976.98zm23.666-6.223c2.34 1.438-1.706 7.217-7.617 7.863 1.364-4.393 5.33-9.273 7.617-7.864zm13.19 0c2.052 1.263-1.71 7.195-7.592 7.86 1.352-4.404 5.298-9.276 7.59-7.86z"/></g><path d="M302.763 16.282h-1.106v3.026h-.755v-3.026h-1.11v-.655h2.97v.655zm5.04 3.026h-.753v-2.93h-.016l-1.064 2.93h-.726l-1.036-2.93h-.02v2.93h-.75v-3.68h1.306l.855 2.403h.013l.895-2.403h1.294v3.68zM161.653 2.108c-3.36-3.156-9.987 2.366-13.03 7.33-2.865 4.672-5.975 10.544-8.438 16.022-1.79 2.034-4.16 4.167-6.36 5.154-2.296 1.03-2.692.012-2.09-1.29.917-1.976 4.794-4.883 4.525-8.76-.17-2.41-3.066-3.034-5.044-2.997.34-1.32.202-2.382-.436-3.087-.928-1.022-2.196-.722-2.843-.086-.633.636-1.034 2.227.288 3.525.417.407.98.58 1.584.663-1.035 2.067-2.096 3.63-3.697 4.44-1 .508-1.816.754-2.517.86.267-.73.476-1.464.583-2.173.4-2.632-1.927-3.68-3.296-2.932-.02-.036-.113-.14-.51-.45-3.238-2.5-9.33 2.668-10.822 7.794-.028.01-.054.02-.082.033l.002-.008c-.016.018-.042.035-.06.053-.095.06-.182.133-.252.226-1.31 1.243-3.43 2.57-5.84 4.026.156-.39.316-.777.468-1.168 4.41-11.32 7.254-22.418 13.8-26.297.426-.253.408-.88-.464-.587-4.577 2.293-8.94 7.266-12.174 14.048-.51 1.064-1.957 4.373-3.574 8.497-4.036 3.916-10.2 8.568-12.66 5.727-4.094-4.733 15.828-27.096 16.058-27.45.232-.353.12-.822-.347-.587-.462.234-1.273.47-4.055.47-2.787 0-8.435-2.31-12.818-1.764-4.228.53-7.01 3.94-7.36 4.704-.28.622-.177 1.24.114.94.642-.646 3.023-2.74 6.265-2.998 3.705-.294 7.43.89 10.09.998 1.75.073 2.94.04 4.575-.352.126-.03.586-.232.234.236-2.798 3.72-6.668 6.587-8.548 8.552-6.553 6.873-9.872 13.613-6.06 18.25 1.422 1.73 5.158 2.47 10.548-1.998 2.004-1.69 2.895-2.42 3.15-2.628-.01.026-.02.05-.028.076-.83 2.193-1.617 4.403-2.424 6.552-3.635 2.25-8.663 3.506-13.563 7.873-5.756 5.122-3.626 14.193 6.69 7.48 4.96-3.228 8.392-9.623 11.277-16.575 2.555-1.568 5.26-3.333 6.668-4.482l.01-.066c.015.018.04.026.055.042-.084 1.44.25 2.807 1.266 3.902 3.565 3.837 9.825-1.083 12.494-6.573.984-.066 2.18-.452 3.6-1.317 1.128-.684 3.054-2.453 4.24-5.302 1.287.024 2.515-.072 2.773.85.83 2.996-8.198 8.89-4.207 12.46 1.8 1.61 5.53.272 9.563-3.717-.528 1.26-1.024 2.497-1.444 3.66 0 .117-.7 1.528 1.28 1.057 1.964-.47 2.2-1.234 2.54-1.94.75-1.53 1.65-3.504 2.65-5.692 1.546.71 2.844.196 4.014-.793.394 1.436-3.12 4.656-1.835 7.698.542 1.287 2.087 2.255 5.218.96 3.033-1.252 5.754-4.586 6.024-5.347.13-.4-.19-.48-.354-.29-3.766 4.347-7.587 5.87-8.233 4.76-.88-1.52 3.478-4.557 1.22-8.23-.217-.35-.475-.612-.75-.837 1.69-1.924 3.184-4.275 4.928-4.16.92.062.982.764.982.764-.464.126-.717.41-.9.634-.663.83.042 2.515 1.537 1.843.534-.24 1.03-.886 1.102-1.536.15-1.354-1.507-2.482-2.61-2.468-2.636.035-4.394 2.488-6.018 4.376-1.062-.387-2.238-.286-3.09-.067 4.72-10.233 11.1-23.037 15.542-20.004 2.395 1.634-.755 6.465-2.494 7.346-.576.292-.462.348-.232.41.846.227 2.93-.533 4.03-2.155 1.153-1.693 1.05-4.73-.43-6.13zm-72.24 46.258c-4.92 3.776-7.108 1.684-5.68-1.822 1.263-3.1 5.49-6.587 13.71-11.123-2.097 5.375-4.426 10.183-8.03 12.946zm30.38-20.19c-2.16 2.593-4.87 4.358-6.667 3.204-3.263-2.096 3.827-14.34 6.607-12.578.466.294.38.176.49.527l.096-.076c-.56.645-.877 1.128-1.053 2.074-.228 1.263.504 3.318 2.463 3.837-.492 1.008-1.123 2.037-1.936 3.012zm3.06-6.043c-.142.553-.345 1.156-.585 1.774-1.437-.29-1.875-1.556-1.74-2.39.224-1.444 1.194-1.532 1.724-1.264.57.285.832.97.6 1.88zm7.317-4.618c-.928-.137-1.35-.54-1.48-.888-.456-1.2 1.295-1.848 1.555-.354.037.31.037.726-.075 1.242zm15.187 6.047c.703-.09 1.33.06 1.866.316-.637.586-1.28.977-1.976.977-.99 0-.818-1.175.11-1.293z" fill="#FFF"/></svg>