<svg xmlns="http://www.w3.org/2000/svg" viewBox="0 0 252 108.482"><title>Philadelphia Phillies wordmark dark logo</title><path d="M220.667 88.035l-193.4-.005-.176.023c-3.974.49-6.667 3.433-6.667 7.216 0 .11 0 .222.006.337.16 3.885 3.147 6.93 6.958 7.076h184.018c2.96 3.912 6.877 6.058 11.06 5.774 4.114-.284 7.716-2.81 9.4-6.595l.11-.244.063-.26c1.185-4.856-.17-7.854-1.513-9.515-2.928-3.615-7.87-3.87-9.86-3.808z" fill="#FFF"/><path d="M228.923 45.804l-1.543-1.13c-.334-.538-2.54-4.12-2.54-4.12l-10.995 7.834.11 1.68c.034.677.054 1.33.054 1.96 0 8.42-3.58 13.03-6.712 15.45-.338.266-.686.434-1.027.664 4.556-4.908 5.86-9.404 5.86-12.798 0-2-.426-3.62-.838-4.725-2.373-6.342-9.336-10.184-16.56-9.136-2.585.374-9.224 2.124-13.628 10.203-.986-4.088-3.078-12.75-3.162-13.105.334-.336 8.816-8.82 8.816-8.82.088-.085.13-.197.13-.31 0-.058-.005-.116-.032-.17-.072-.165-.232-.273-.41-.273l-11.414.047c-.195-.562-4.774-13.437-4.774-13.437-.06-.173-.22-.29-.406-.292-.186-.005-.348.105-.418.276 0 0-5.18 12.92-5.39 13.453l-3.985-.015c-.478-1.865-1.138-3.585-2.032-5.11-2.035-3.45-5.12-5.49-8.47-5.596-2.184-.027-6.59-.08-9.636 3.17-1.014 1.077-1.738 2.39-2.223 3.933-.337-.82-.735-1.577-1.2-2.27-2.185-3.272-5.52-4.942-9.658-4.834-3.496.075-6.146 1.113-8.08 3.172-1.742 1.855-2.77 4.417-3.1 7.76l-4.172-.24-5.398-13.423c-.07-.17-.228-.28-.416-.276-.184 0-.348.114-.41.286 0 0-4.76 12.845-4.965 13.395H88.94c-.176 0-.328.103-.398.258-.03.058-.043.122-.043.186 0 .102.033.204.103.285l9.176 10.82c-.088.29-2.016 6.635-3.352 11.044-1.098-5.148-3.416-8.6-6.93-10.256-3.46-1.632-7.102-1.058-9.928-.128V23.908c.024-.335.05-.67.05-.996 0-3.263-1.356-5.942-3.82-7.47-2.788-1.726-6.618-1.64-9.536.22-.205.132-.402.283-.596.43-1.805-5.486-5.96-9.895-12.215-12.77C37.85-2.93 18.655-.09 8.66 9.65c-6.445 6.327-9.59 14-8.422 20.532.71 3.953 3.012 7.07 6.322 8.558 4.547 2.032 7.975 1.19 10.043.124 1.924-.986 3.365-2.506 4.502-4.126v29.907c-3.738 4.253-5.8 8.627-5.8 12.523 0 1.135.163 2.23.507 3.268 1.062 3.225 3.756 5.438 7.39 6.08 4.13.716 8.647-.593 12.095-3.494 3.383-2.85 5.244-6.75 5.244-10.987v-22.48c7.782-2.923 15.24-6.483 19.77-12.7V77.77c-.028.293-.07.588-.07.875 0 2.578 1.146 4.808 3.247 6.243 2.783 1.9 6.857 2.032 9.898.322 2.594-1.458 4.045-3.96 4.045-6.915 0-.16-.002-.322-.018-.485l.008-18.978c.256-.2.71-.41 1.018-.347.088.02.225.273.338.645v17.547c.072 4.793 2.842 8.238 7.61 9.5 4.276 1.128 10.14.22 13.813-2.42 2.808 2.153 5.83 3.258 9.04 3.22 4.008-.047 7.305-1.877 9.36-3.38 7.452 5.867 16.056 2.645 21.163-1.047 8.463 6.87 18.127 4.11 23.715.63 6.527 5.38 14.402 4.332 19.527 1.444.79-.444 1.457-.898 2.03-1.355 8.358 4.383 16.08 5.255 22.968 2.418 3.018-1.24 5.594-3.102 7.822-5.246.006.008.092.083.092.083 8.23 7.294 14.734 7.037 18.746 5.536 5.978-2.238 9.89-8.695 10.527-13.634.166-1.155.242-2.258.242-3.318.003-11.303-8.727-17.648-16.51-23.304zM41.363 32.04v-14.4c4.117.042 6.057 1.846 6.54 6.036.038.31.054.612.054.91 0 3.568-2.454 6.197-6.594 7.453zm95.742 33.52c-.482 2.423-1.37 4.09-2.393 4.453-.64.225-1.516-.088-2.406-.74-.438-.823-.832-1.602-.832-3.332 0-1.03.152-2.432.504-4.343 2.227-5.032 3.926-9.773 5.127-14.164V65.56zm33.49-19.157c.055.045.268.205.586.446-.312-.1-.628-.15-.946-.208.182-.12.318-.212.36-.24zm-9.906 20.23c-.253 1.768-1.34 3.172-2.942 3.76-1.297.47-2.582.287-3.43-.494-.87-.8-1.312-2.23-1.312-4.07 0-1.264.22-2.73.637-4.315 4.15-8.17 6.545-16.018 7.086-22.832.698.66 1.17 1.11 1.247 1.182-.166.51-4.607 14.428-4.607 14.428-.016.045-.023.09-.023.133 0 .137.064.27.178.354.15.11.353.118.514.013l2.925-1.957c-.172.657-.29 1.338-.29 2.06 0 .146.017.293.017.442-.003 0-.003 10.674-.003 11.295zm16.065 3.532c-.016-.01-.033-.05-.05-.067V55.202l-.015-.13c-.195-2.288-.86-4.058-1.79-5.396 1.985 1.51 4.126 3.136 5.24 3.982-1.54 3.46-2.68 7.887-3.08 13.57l-.015.246.023.243c.025.28.033.53.033.757.003 1.02-.202 1.477-.345 1.69zm52.45 1.595c-.256.038-1.506-.247-3.617-2.384 0 0-1.062-1.075-1.254-1.274.918-1.982 1.627-3.79 2.133-5.248 1.87 1.36 2.892 3.436 3.213 5.29.084.482.12.93.12 1.327 0 1.322-.38 2.146-.595 2.29z" fill="#FFF"/><g fill="#284898"><path d="M169.75 23.175c-.106 0-.193.063-.23.164 0 0-3.042 8.607-3.153 8.927h-7c-.103 0-.195.062-.232.158-.01.028-.012.06-.012.088 0 .07.027.137.082.185 0 0 5.865 5.147 6.098 5.348l-2.633 8.606c-.008.024-.008.048-.008.072 0 .08.037.157.105.203.088.06.207.057.293-.01 0 0 6.398-4.968 6.69-5.193l6.693 5.193c.086.066.2.07.29.01.063-.05.104-.125.104-.203 0-.025-.004-.05-.01-.073 0 0-2.586-8.307-2.682-8.604l6.098-5.348c.057-.048.086-.115.086-.185 0-.03-.005-.06-.017-.088-.033-.096-.127-.158-.225-.158h-7.006c-.11-.32-3.1-8.926-3.1-8.926-.033-.098-.13-.165-.232-.165zM105.783 23.175c-.108 0-.203.063-.234.164l-3.15 8.927h-7c-.105 0-.194.062-.233.158-.01.028-.016.06-.016.088 0 .07.034.137.083.185l6.103 5.348-2.633 8.606c-.01.024-.01.048-.01.072 0 .08.035.157.104.203.088.06.21.057.293-.01l6.693-5.193c.287.226 6.684 5.193 6.684 5.193.088.066.21.07.3.01.06-.05.102-.125.102-.203 0-.025-.003-.05-.01-.073 0 0-2.593-8.307-2.683-8.604.23-.205 6.098-5.348 6.098-5.348.058-.048.09-.115.09-.185 0-.03-.008-.06-.023-.088-.03-.096-.123-.158-.223-.158h-7.005c-.113-.32-3.102-8.926-3.102-8.926-.037-.098-.13-.165-.23-.165z"/></g><path d="M227.312 48.026l-2.03-1.48c0-.038-1.085-1.79-1.085-1.79l-.152-.258-7.365 5.244.016.155c.848 13.632-6.35 19.426-10.72 21.668-4.177 2.145-8.18 2.286-9.212 1.444-.145-.113-.21-.233-.21-.372 0-.025.01-.046.01-.066 8.263-5.348 12.82-11.58 12.82-17.306 0-1.258-.224-2.49-.667-3.683-1.92-5.14-7.637-8.242-13.59-7.38-3.248.47-13.95 3.534-15.324 23.215.336 3.61-1.094 5.25-2.42 5.578-1.367.335-2.787-.558-3.447-2.17l.02-15.493c-.422-4.78-3.055-6.263-5.39-6.07-2.68.225-5.388 2.727-5.13 6.094v12.368c-.348 2.677-2.018 4.827-4.463 5.72-2.258.82-4.703.376-6.37-1.158-1.42-1.304-3.503-4.554-1.573-11.662 8.732-16.975 8.12-29.372 4.63-35.3-1.57-2.66-3.767-4.168-6.19-4.243-2.77-.034-5.59.223-7.538 2.302-1.7 1.81-2.395 4.775-2.078 8.814v33.71c-.863 4.597-2.775 6.185-4.23 6.697-1.684.596-3.684.043-5.486-1.498-.002-.032-.236-.482-.236-.482-.598-1.132-1.172-2.225-1.172-4.614 0-1.28.166-2.935.58-5.168 4.703-10.506 7.142-19.87 7.142-26.89 0-3.86-.738-7.013-2.238-9.258-1.627-2.446-4.148-3.695-7.29-3.612-2.735.06-4.757.813-6.16 2.307-1.82 1.938-2.616 5.067-2.44 9.563v35.73c.012 1.87-.7 3.3-2.012 4.02-1.234.68-2.805.62-4.004-.153-1.184-.762-1.773-2.04-1.652-3.603V55.62c.09-2.785-.928-5.006-2.8-6.084-1.548-.896-3.476-.856-5.005.1-1.843 1.15-2.796 3.375-2.61 6.1v14.288c-.072 2.354-2.06 3.24-3.744 3.285-2.027.056-4.174-1.065-4.355-3.31V54.57c-.692-5.643-2.647-9.244-5.82-10.738-4.642-2.19-10.16.757-11.5 1.54v-21.47c.04-.352.052-.692.052-1.024 0-2.285-.877-4.083-2.52-5.1-1.91-1.184-4.565-1.103-6.612.2-1.76 1.122-2.732 2.933-2.732 5.053 0 .27.018.543.055.82v53.925c-.04.3-.063.593-.063.876 0 1.655.705 3.054 2.047 3.966 1.916 1.312 4.858 1.395 6.998.194 1.805-1.018 2.742-2.743 2.635-4.86V58.684c-.225-1.165 1.127-2.51 2.836-2.87.754-.16 3.262-.42 4.02 2.932l-.01 17.93c.057 3.478 2.03 5.903 5.57 6.84 4.684 1.238 10.947-.49 13.01-3.487 2.82 2.808 5.875 4.234 9.104 4.198 4.95-.057 8.637-3.422 9.46-4.243 8.802 9.18 19.833.19 21.188-.976 10.186 10.36 22.422 1.783 23.855.71 5.72 6.062 13.006 5.3 17.953 2.512 1.246-.704 2.44-1.65 2.795-2.397 8.345 4.876 15.915 6.024 22.505 3.313 12.168-5.013 17.14-21.63 17.807-24.074 5.09 1.357 7.356 5.833 7.717 9.336.046.377.065.74.065 1.095 0 2.298-.81 4.104-2.17 4.75-1.688.8-4.084-.245-6.746-2.94l-.126-.13-.174.064c-2.13.79-5.502 6.622-5.646 6.87l-.117.2.174.148c7.202 6.39 12.653 6.258 15.956 5.024 5.283-1.98 8.31-7.87 8.774-11.42.142-1.04.207-2.037.207-2.99-.006-9.874-7.486-15.318-15.375-21.054zm-101.154 2.228l-.33.052V29.074l.177-.074c.422-.18.838-.15 1.223.09 1.652 1.03 2.24 5.745 2.322 7.56-.533 8.874-1.642 13.324-3.392 13.604zm21.582 0l-.328.052V29.074l.17-.073c.412-.177.832-.15 1.207.08 1.517.93 2.185 5.14 2.345 7.523l-.057.702c-.424 5.847-1.19 12.605-3.338 12.95zm41.742 14.506c-.297-.178-.445-.433-.52-.822-.3-1.566.744-4.923 2.967-7.61l.028-.04c1.027-1.84 3.13-3.386 5.36-3.937 1.255-.31 2.362-.235 3.046.208.207.158.367.594.437 1.187.2 1.866-.573 5.006-2.413 7.15-2.012 2.35-5.39 4.29-7.53 4.324-.627.01-1.094-.146-1.375-.46zM50.312 5.784C37.865.062 19.656 2.724 10.56 11.594c-5.803 5.69-8.656 12.462-7.644 18.11.553 3.1 2.244 5.43 4.758 6.558 2.97 1.33 5.596 1.4 7.797.212 4.48-2.41 5.612-9.087 5.66-9.37l.056-.337-.344.01c-1.152.025-2.578-.217-2.852-1.523-.03-.15-.05-.31-.05-.478 0-2.257 2.825-5.87 6.65-7.617v48.456c-3.993 4.23-6.19 8.563-6.19 12.063 0 .794.11 1.546.347 2.246.69 2.088 2.437 3.478 4.926 3.917 3.36.578 7.234-.564 10.12-2.992 2.755-2.32 4.274-5.456 4.274-8.815V47.682c14.53-5.28 23.1-10.863 23.883-23.622.024-.448.04-.896.04-1.336 0-7.478-4.108-13.46-11.678-16.94zM40.244 35.25l-1.627.306v-20.55l1.28-.084c6.425-.434 10.042 2.404 10.737 8.45.635 5.915-3.447 10.58-10.39 11.88zM27.453 91.027c-5.832.72-4.928 8.47.05 8.663h185.355c5.314 8.563 13.78 6.555 16.27.953 2.108-8.61-5.173-9.71-8.378-9.616H27.453z" fill="#E81828"/><g><path d="M244.654 45.816h-1.62v4.414h-1.095v-4.414h-1.62v-.957h4.334v.956zM252 50.23h-1.094v-4.274h-.025l-1.556 4.274h-1.063l-1.493-4.274h-.035v4.274h-1.096v-5.37h1.902l1.252 3.507h.027l1.297-3.508H252v5.37z" fill="#E81828"/></g></svg>