<svg xmlns="http://www.w3.org/2000/svg" viewBox="0 0 132.471 164.928"><title>San Diego Padres primary light logo</title><g fill="#FFF"><path d="M119.36 159.985h1.82v4.943h1.23v-4.943h1.82v-1.08h-4.87M130.352 158.904l-1.46 3.936h-.027l-1.406-3.936h-2.13v6.024h1.23v-4.79h.03l1.686 4.79h1.19l1.742-4.79h.034v4.79h1.23v-6.024M86.794 33.138l-56.645.015c-.447 0-.48.7 0 .767.442.06 7.73.664 7.73 7.35l.004 18.48c-5.243 0-16.705.02-17.214 0-2.825-.033-3.786-2.058-3.935-3.64.004-4.343.007-26.398.01-26.688.167-8.383 4.7-12.662 12.58-12.662l38.094-.018c2.203 0 4.11 1.077 4.11 3.77 0 2.71-2.867 3.492-3.37 3.734-.216.125-.263.462-.02.462h21.29l-.007-7.023C89.25 12.532 85.833.005 69.84.005L26.914 0C11.172 0-.07 11.496 0 26.538V56.24c0 10.175 8.556 20.234 20.565 20.234h48.008c3.31 0 4.2 3.02 4.2 4.18l-.04 26.124c.02 6.848-3.99 12.236-11.11 12.236H54.63V82.99H37.887v.024h-.005l.01 36H20.265c-2.992-.102-3.513-2.93-3.513-4.2 0-.885-.02-12.166-.02-16.226 0-4.315 5.302-5.714 6.593-6.042.165-.04.275-.133.257-.326-.015-.154-.118-.225-.224-.225H.006l-.002 25.013C-.05 125.856 7.25 135.76 17.88 135.76h20.013l-.002 18.06c-.048 1.498-.3 2.808-.695 3.965-1.545 4.083-5.334 6.083-7.047 6.456-.438.096-.443.597-.086.67.014.005.02.018.038.018h56.008l.492-.003c23.78 0 37.072-11.57 37.072-35.006V68.015c0-23.656-13.346-34.878-36.878-34.878zm20.127 99.487c0 10.88-8.554 16.698-19.357 16.698-9.907 0-27.11.014-32.93.02V135.76h8.856c15.74 0 26.048-11.395 26.048-26.35l-.002-30.817c0-6.434-5.264-18.844-20.563-18.844H54.63V48.717h33.65c11.322 0 18.64 8.135 18.64 18.655v65.252z"/></g></svg>