<svg xmlns="http://www.w3.org/2000/svg" viewBox="0 0 296.231 59.144"><title>St. Louis Cardinals wordmark light logo</title><g fill="#FFF"><path d="M291.42 35.136c-.502 0-.953.05-1.354.1.5-1.804-.2-3.91-.852-5.764-.2-.6-.4-1.153-.55-1.654-.552-2.155-.853-3.51-.15-5.413.45-1.203-1.404-2.205-3.058-2.957l-.25-.1-.202.1c-1.604.6-5.914 5.965-10.576 11.88-1.454 1.854-2.857 3.658-3.158 3.858-.15.1-.25.2-.3.2-.05-.15-.05-.6.2-1.704l5.263-24.11-6.566 2.557-.05.6c-.6 5.213-2.255 19.046-6.817 21.903-.05.05-.1.05-.2.1-.302.2-1.003.652-1.404.652h-.05c.1-1.403 2.656-12.43 3.208-14.786l.1-.552h-5.363l-.2.752c-.55-.45-1.353-.652-2.306-.652-.4 0-.802.05-1.203.1-7.417 1.403-8.52 10.676-8.87 13.733-.05.252-.05.552-.1.653-1.254 1.554-2.256 1.704-2.607 1.704-.25 0-.5-.1-.652-.25-.2-.2-.25-.502-.25-.803.05-1.103.55-2.957 1.153-4.912 1.053-3.66 2.155-7.418.952-8.922-.702-.852-1.654-1.303-2.807-1.303-1.454 0-3.007.702-4.16 1.554l.35-1.603h-5.613l-.1.4c-.802 3.81-3.108 12.18-4.862 14.236-.5.6-1.454.902-2.105.902-.3 0-.5-.05-.55-.15 0 0-.05-.05-.05-.15.1-1.203 2.806-10.977 3.808-14.686l.2-.653h-5.664l-.1.4c0 .1-2.356 10.527-4.21 13.734-.55.903-1.153 1.455-1.754 1.455-.3 0-.55-.15-.652-.3-.2-.252-.35-.602-.3-.953.2-2.957 5.512-23.708 5.563-23.908l.25-.952-6.516 2.556-1.905 8.77c-.302-.2-.753-.4-1.404-.5-.4-.05-.752-.1-1.153-.1-3.51 0-5.463 2.907-6.817 5.413-1.203 2.206-2.456 6.066-2.506 8.973-.652.802-1.855 1.955-2.656 1.955h-.1c-.45-.05-.752-.25-.902-.6-1.303-2.557 2.907-11.38 4.61-14.536l.402-.752h-9.674l.3-1.103h-4.71l-.1.4c-.952 4.21-3.258 12.18-5.564 15.44-.4.6-.902.95-1.303.95-.35 0-.5-.3-.55-.6-.05-.852 1.904-9.423 3.207-14.936l.15-.6h-5.614l-.35 1.403c-.653-.35-1.705-.702-2.908-.702-1.754 0-3.358.803-4.762 2.307-3.56 4.01-4.862 8.72-3.51 12.88-.3.402-1.904 1.304-3.307 2.006l-.803.35.702.502c1.653 1.103 2.254 2.556 2.254 2.556l.15.352.4-.05c1.154-.2 2.256-1.203 2.808-1.754 1.002.652 2.105 1.002 3.158 1.002 1.403 0 2.807-.6 4.01-1.754 1.855 1.654 4.26 1.754 4.962 1.754 5.513 0 7.72-7.67 9.323-13.282.3-.952.55-1.905.802-2.656h3.81c-.252.6-.552 1.303-.853 2.055-.652 1.604-1.403 3.408-2.005 5.163-1.003 3.007-1.705 6.315.45 7.87.902.65 1.955.95 3.108.95 2.255 0 4.51-1.202 6.065-2.405 1.103 1.654 2.957 2.356 4.41 2.356h.2c1.655-.05 3.008-.45 4.21-1.302.803.952 1.805 1.403 2.958 1.403 1.805 0 3.61-1.152 4.963-2.305.6 1.403 1.704 2.205 3.158 2.205 1.555 0 3.21-.6 4.763-1.754l-.45 1.754h5.863l2.205-8.12c1.505-6.065 3.11-6.716 3.76-6.716.45 0 .752.3.802.35.25.352-.05 1.304-.55 2.708-.252.752-.552 1.654-.853 2.757l-.1.3c-.602 2.055-1.555 5.463-.2 7.418.55.802 1.402 1.253 2.555 1.353 2.356.2 5.463-1.102 7.318-2.956 1.353 1.905 2.907 2.857 4.762 2.857 1.303 0 2.757-.45 4.46-1.402.653.852 1.354 1.554 2.657 1.554.2 0 .35 0 .5-.05 1.605-.05 3.16-1.253 4.362-2.506.802 1.604 2.105 2.506 3.71 2.506h.05c2.655-.05 4.91-2.205 6.615-4.01 1.803 2.205 3.91 4.16 7.166 4.16.5 0 1.053-.05 1.604-.15.652-.1 1.253-.25 1.754-.4.652-.2 1.253-.352 1.754-.352.6 0 1.353.15 2.656 1.253l.702.6.1-.95s.25-2.106 3.66-4.362l.7-.5-.75-.4c-.952-.654-2.054-.904-3.207-.904zm-6.617-4.46c.652 2.104 1.203 3.808 0 5.262-.4.45-1.153.702-1.955.702-.852 0-1.654-.3-2.205-.802-2.606-2.456-2.506-2.556-1.203-4.31.652-.852 1.253-1.654 1.804-2.456.902-1.253 1.754-2.406 2.606-3.358 0 1.803.502 3.457.953 4.96zm-26.665-5.364c-.35 3.158-1.804 10.626-4.56 10.626-.252 0-.452-.1-.653-.35-.3-.352-.852-1.605 0-5.063.902-3.66 2.255-5.413 4.11-5.413.35 0 .702.1 1.103.2zm-46.062 5.513c-.3 1.203-.6 2.406-.902 3.71-.15.65-1.103 1.202-2.055 1.202-.352 0-1.003-.1-1.204-.652-.652-1.504.05-5.564 1.754-8.17.6-.902 1.554-2.005 2.757-2.005.15 0 .35 0 .5.05l.05.05c.402.602-.3 3.36-.9 5.815zm-33.532-5.664c-.4 4.31-1.905 10.727-4.26 10.727-.25 0-.45-.1-.652-.35-.3-.352-.852-1.605 0-5.063.6-2.506 1.855-5.463 4.11-5.463.25.05.5.05.802.15z"/><path d="M228.015 16.99c1.754 0 3.158-1.402 3.158-3.157s-1.403-3.158-3.158-3.158-3.158 1.403-3.158 3.158 1.453 3.158 3.158 3.158zM186.363 43.706c-2.406 0-4.962.45-7.62.902-2.706.5-5.512.952-8.27.952-2.706 0-4.96-.5-7.016-1.454-3.76-1.804-6.516-6.365-6.616-10.876-.25-10.927 6.066-22.806 11.83-26.114 1.002-.55 2.456-.902 4.01-.902 1.654 0 3.208.4 4.36 1.053-1.954 2.506-1.152 4.16-.15 5.062.602.55 1.354.85 2.156.85 1.203 0 2.406-.65 3.057-1.703 1.554-2.606.2-5.513-1.454-7.167-2.106-2.055-5.865-3.358-9.574-3.358-5.664 0-9.423 3.108-13.332 7.77-5.764 6.916-12.38 25.712-3.86 35.536 1.304 1.504 6.116 6.315 14.386 6.315.5 0 1.053 0 1.604-.05 2.556-.2 4.51-.6 6.215-1.002 1.553-.35 2.856-.6 4.16-.6 1.904 0 3.658.6 5.863 2.055l.3.2.302-.2c1.203-.902 2.807-1.403 4.812-1.403 1.704 0 3.408.35 4.812.652l1.152.25-.6-1c-2.46-3.963-5.767-5.768-10.53-5.768zM24.27 21.05c-.552-.2-1.104-.45-1.655-.65-5.965-2.357-10.225-4.01-9.523-8.923.55-3.66 4.36-5.664 7.72-5.664 1.052 0 2.104.2 3.006.55-.6.853-.852 1.956-.652 3.11.25 1.402 1.053 2.605 2.205 3.107.502.25 1.054.35 1.655.35 1.754 0 3.76-1.102 4.06-3.157.25-2.005-.4-3.96-1.905-5.714C27.126 1.653 23.667.05 20.56 0h-.15C12.59 0 5.573 5.764 4.47 13.132c-.752 4.812 1.704 8.872 7.067 11.73l.1.05c5.513 1.753 10.576 4.11 10.526 9.622-.05 4.56-3.358 9.423-8.27 9.423-.2 0-.45 0-.652-.05-3.257-.3-5.863-1.554-6.916-3.408-.802-1.354-.802-2.958-.1-4.913 1.504 1.604 3.108 2.406 4.71 2.406 3.16 0 5.113-3.108 5.214-3.258l.35-.6-.65-.15c-5.164-1.254-5.565-4.913-5.615-5.063l-.05-.4-.4-.05c-.252 0-.502-.05-.753-.05-5.564.05-8.77 4.71-9.022 9.12-.1 2.056.55 6.417 3.71 9.725 2.405 2.506 5.663 3.81 9.673 3.81h.05c4.963 0 9.675-2.006 13.183-5.565 3.51-3.61 5.413-8.32 5.313-13.332-.1-4.813-4.11-9.725-7.667-11.13zM13.39 50.574zM44.368 34.434l-.55.45c-.953.803-1.705 1.354-2.507 1.204 0-.802.552-3.51.953-5.513.35-1.754.702-3.408.852-4.56h4.01l1.103-5.514h-3.86l1.805-10.374-5.965 3.51-1.254 6.764h-4.66l-1.154 5.664h4.31c-.15 1.353-.4 2.957-.652 4.66-.45 2.808-.952 6.016-1.053 9.123 0 .6.2 1.103.6 1.554.602.653 1.655 1.003 2.808 1.003h.15c1.855-.05 3.56-.952 4.61-2.456 1.003-1.454 1.254-3.258.753-4.812l-.298-.7zM50.282 43.656c1.554 0 2.807-1.403 2.807-3.108s-1.254-3.108-2.808-3.108-2.807 1.403-2.807 3.108c.05 1.705 1.303 3.108 2.807 3.108zM118.247 15.588c1.554 0 2.857-1.303 2.857-2.857 0-1.603-1.253-2.856-2.857-2.856-1.554 0-2.857 1.303-2.857 2.857s1.253 2.858 2.857 2.858zM138.898 35.887c-.35 0-.6 0-.852.05.25-3.208-.652-4.762-1.504-6.165-.652-1.103-1.203-2.005-1.203-3.66-.05-1.753.05-2.756.35-4.51l.05-.25-.15-.2c-.902-1.003-2.606-2.156-2.656-2.206l-.25-.15-.252.15c-5.062 2.757-9.373 9.122-12.23 13.383-1.053 1.603-2.306 3.357-2.707 3.608-.1 0-.2-.1-.35-.25-1.204-1.856.95-10.076 2.655-15.188l.2-.652h-5.363l-.05.45c-.55 4.412-2.907 15.79-7.017 15.79h-.2c-.25 0-.4-.15-.55-.352-1.404-2.205 1.402-11.73 2.605-15.187l.25-.653h-5.462l-.05.45c0 .05-.5 3.86-1.554 7.62-1.304 4.71-2.958 7.318-4.612 7.318h-.25s-.2-.1-.302-.2c-.752-1.103.3-5.363.952-7.92.35-1.302.6-2.355.6-2.906.1-1.755-.75-3.91-3.407-4.11-.8-.05-2.154.65-3.708 1.503-1.353.752-2.857 1.554-3.61 1.554h-.05c-1.803-2.656-4.16-3.96-7.166-4.01h-.1c-3.96 0-8.82 5.564-9.122 12.68-.3 7.52 1.554 10.627 6.416 10.877 3.56.15 6.666-2.155 8.82-6.416 1.605-3.258 1.705-5.814 1.755-8.52v-.2c.802-.803 3.108-1.555 3.91-1.805.1 0 .2-.05.3.1.953 1.303-.8 8.42-2.154 12.63v.15c-.1 2.307 1.505 3.058 2.407 3.16.25.1.6.15 1.053.15 1.855 0 5.012-1.054 6.466-2.607 1.203 1.704 2.807 2.556 4.962 2.606 2.306.1 4.11-.752 5.413-2.556 1.104 1.754 2.708 2.656 4.462 2.556 2.556-.2 4.51-2.255 5.965-4.21.4.4.802.802 1.153 1.203 1.704 1.855 3.208 3.458 6.115 3.56 2.306.1 4.06-.803 5.463-1.655.55.05 2.506.3 3.86 1.504l.6.55.2-.8c.5-2.106 3.208-4.412 3.208-4.412l.45-.4-.45-.402c-.852-.652-2.005-1.053-3.308-1.053zm-8.12-9.773l.55 4.812c.552 2.707.552 4.71-1.102 5.614-.45.25-.952.35-1.504.35-1.804 0-3.458-1.252-3.81-2.856 2.357-4.412 4.713-6.868 5.866-7.92zm-48.92.802l.05.2.15.1c1.404.852 1.755 1.303 1.705 2.205-.2 2.307-1.103 7.87-4.46 9.123-.2.05-.352.1-.502.1-.8 0-1.252-.902-1.503-1.654-1.002-3.16 0-9.725 3.108-11.88.55-.4 1.053-.652 1.554-.652.3 0 .65.1 1 .3-.75.453-1.402 1.205-1.1 2.158z"/><path d="M65.57 45.21c-1.154 0-2.106.05-2.758.05 1.604-3.66 4.56-15.237 6.365-23.056 3.358-12.23 8.42-15.488 10.876-15.488h.05c.702 0 1.303.702 1.504 1.403-.752.2-1.454.7-1.955 1.453-.702 1.002-.902 2.205-.55 3.258.5 1.555 1.703 2.557 3.257 2.607h.1c1.152 0 2.355-.702 3.307-2.005 1.504-2.005 2.155-4.962 1.504-7.167-.95-3.208-3.658-5.363-6.816-5.363-.25 0-.45 0-.702.05-7.617.752-14.283 8.07-17.942 19.548-1.153 3.61-1.955 8.02-2.907 13.132-.752 4.01-1.504 8.12-2.556 12.48-1.905.45-11.328 3.007-10.626 7.77.15 1.302 1.003 2.054 2.357 2.054 3.408 0 9.774-4.66 10.726-5.363 1.604-.15 3.158-.2 4.61-.2 7.42 0 11.78 1.855 14.186 3.358 2.555 1.655 3.407 3.36 3.407 3.36l.25.5.452-.25c1.102-.602 2.355-.903 3.708-.903 3.458 0 6.566 2.005 6.566 2.005l1.103.702-.35-1.253c-3.11-11.427-20.05-12.68-27.168-12.68zM293.223 33.13h.35v-1.303h.452v-.25h-1.253v.25h.45M295.68 31.577l-.402 1.002-.35-1.003h-.602v1.554h.35V31.88l.452 1.253h.3l.452-1.252v1.253h.35v-1.553"/></g></svg>